<svg width="24" height="24" viewBox="0 0 24 24" fill="none" xmlns="http://www.w3.org/2000/svg">
<path d="M12.9797 11.7435L17.8397 6.88346C17.9489 6.75593 18.006 6.59188 17.9995 6.42409C17.993 6.25631 17.9235 6.09715 17.8047 5.97842C17.686 5.85969 17.5268 5.79013 17.3591 5.78365C17.1913 5.77717 17.0272 5.83424 16.8997 5.94346L12.0397 10.8035L7.1797 5.93679C7.05216 5.82758 6.88811 5.77051 6.72033 5.77699C6.55254 5.78347 6.39338 5.85302 6.27465 5.97175C6.15592 6.09048 6.08637 6.24964 6.07989 6.41742C6.07341 6.58521 6.13048 6.74926 6.2397 6.87679L11.0997 11.7435L6.23303 16.6035C6.16324 16.6632 6.10656 16.7368 6.06655 16.8195C6.02653 16.9022 6.00404 16.9923 6.0005 17.0841C5.99695 17.1759 6.01242 17.2675 6.04594 17.353C6.07945 17.4386 6.13029 17.5163 6.19526 17.5812C6.26023 17.6462 6.33793 17.697 6.42348 17.7306C6.50903 17.7641 6.60059 17.7795 6.6924 17.776C6.78421 17.7724 6.8743 17.75 6.95701 17.7099C7.03972 17.6699 7.11326 17.6132 7.17303 17.5435L12.0397 12.6835L16.8997 17.5435C17.0272 17.6527 17.1913 17.7097 17.3591 17.7033C17.5268 17.6968 17.686 17.6272 17.8047 17.5085C17.9235 17.3898 17.993 17.2306 17.9995 17.0628C18.006 16.895 17.9489 16.731 17.8397 16.6035L12.9797 11.7435Z" fill="black"/>
</svg>
