<svg width="48" height="48" viewBox="0 0 48 48" fill="none" xmlns="http://www.w3.org/2000/svg">
<path d="M34 4H14C8.47715 4 4 8.47715 4 14V34C4 39.5229 8.47715 44 14 44H34C39.5228 44 44 39.5229 44 34V14C44 8.47715 39.5228 4 34 4Z" stroke="white" stroke-width="2" stroke-linecap="round" stroke-linejoin="round"/>
<path d="M31.9997 22.7396C32.2465 24.4041 31.9622 26.1041 31.1872 27.5977C30.4122 29.0913 29.1859 30.3025 27.6829 31.059C26.1799 31.8155 24.4766 32.0788 22.8152 31.8115C21.1539 31.5442 19.6192 30.7598 18.4293 29.5699C17.2395 28.3801 16.4551 26.8454 16.1878 25.1841C15.9205 23.5227 16.1838 21.8194 16.9403 20.3164C17.6968 18.8133 18.908 17.5871 20.4016 16.8121C21.8952 16.0371 23.5952 15.7528 25.2597 15.9996C26.9575 16.2514 28.5294 17.0426 29.743 18.2562C30.9567 19.4699 31.7479 21.0418 31.9997 22.7396Z" stroke="white" stroke-width="2" stroke-linecap="round" stroke-linejoin="round"/>
<path d="M35 13H35.02" stroke="white" stroke-width="2" stroke-linecap="round" stroke-linejoin="round"/>
</svg>
