<svg xmlns="http://www.w3.org/2000/svg" width="630px" height="631px" viewBox="0 0 6300 6310" preserveAspectRatio="xMidYMid meet"><g fill="#db599f"><path d="M3974 5308 c2 -7 7 -77 10 -154 l6 -142 -27 -7 c-52 -12 -215 -94 -277 -139 -240 -171 -317 -431 -207 -704 46 -114 169 -259 289 -341 87 -59 246 -135 352 -169 192 -61 474 -78 667 -41 195 37 356 120 466 238 107 116 157 238 157 383 0 105 -15 167 -64 273 -115 243 -364 434 -677 517 -95 25 -140 31 -267 35 l-153 5 -131 127 c-131 127 -151 144 -144 119z"/><path d="M1557 1869 l6 -84 -56 -23 c-74 -31 -131 -93 -152 -167 -30 -100 7 -200 110 -301 199 -195 587 -235 773 -79 43 36 82 119 82 175 0 84 -26 138 -104 216 -54 53 -92 80 -159 113 -111 53 -159 68 -281 83 l-98 12 -64 70 -63 69 6 -84z"/><path d="M928 1153 c-2 -21 -14 -34 -45 -51 -24 -13 -43 -28 -43 -33 0 -19 213 -228 315 -309 150 -120 160 -125 214 -110 26 7 59 26 78 45 64 64 37 153 -79 260 -79 73 -156 114 -273 146 -88 24 -90 24 -133 57 l-31 22 -3 -27z"/><path d="M1660 994 c0 -37 -3 -41 -40 -58 -43 -19 -65 -44 -75 -86 -8 -37 32 -109 83 -147 48 -36 167 -77 254 -87 127 -16 238 37 238 113 0 96 -115 179 -305 220 -71 16 -94 26 -121 52 l-34 33 0 -40z"/><path d="M1503 612 c5 -41 4 -44 -24 -54 -16 -5 -29 -13 -29 -17 0 -18 440 -251 474 -251 8 0 20 9 26 19 29 55 -7 127 -89 180 -57 37 -172 80 -213 81 -41 0 -79 18 -117 53 l-34 32 6 -43z"/><path d="M2103 368 c6 -40 -2 -51 -44 -61 -15 -4 -37 -15 -50 -26 l-23 -18 30 -16 c40 -20 339 -112 451 -138 101 -23 123 -19 123 25 0 83 -160 174 -338 192 -57 6 -74 13 -111 43 l-44 36 6 -37z"/></g><g fill="#f5a12a"><path d="M6068 4172 c-50 -56 -70 -161 -48 -253 31 -133 124 -269 184 -269 25 0 27 3 22 28 -3 15 -8 45 -12 67 -17 110 -107 429 -123 439 -5 3 -15 -2 -23 -12z"/><path d="M5474 4029 c4 -52 9 -106 12 -120 5 -24 -1 -30 -48 -57 -164 -94 -250 -239 -251 -422 -1 -233 169 -443 418 -515 138 -40 296 3 388 105 84 93 127 261 108 420 -15 116 -46 201 -104 283 -78 109 -182 170 -318 184 l-60 6 -66 99 c-36 54 -70 101 -75 104 -7 5 -8 -25 -4 -87z"/><path d="M6223 3589 c-6 -8 -24 -50 -39 -94 -24 -70 -28 -99 -32 -236 -3 -121 -1 -175 12 -239 16 -78 54 -171 75 -184 22 -14 36 329 21 529 -14 203 -21 243 -37 224z"/><path d="M5980 2889 l0 -91 -49 -56 c-112 -129 -171 -272 -171 -416 0 -135 38 -225 121 -282 46 -31 121 -42 158 -22 49 26 143 343 190 638 5 36 13 82 16 102 5 31 1 42 -23 69 -31 35 -72 43 -137 26 -30 -7 -31 -6 -59 58 -15 36 -32 65 -37 65 -5 0 -9 -41 -9 -91z"/><path d="M5486 2088 c-3 -24 -8 -82 -12 -131 l-7 -88 -81 -63 c-97 -75 -204 -187 -252 -262 -19 -30 -48 -87 -64 -128 -40 -99 -42 -214 -6 -291 41 -88 144 -165 242 -181 40 -6 40 -6 127 85 198 208 383 478 521 761 31 63 55 123 54 134 -2 11 -19 29 -38 40 -29 17 -51 21 -125 20 -49 0 -118 -8 -151 -17 -34 -10 -64 -17 -67 -17 -2 0 -28 36 -57 80 -70 107 -76 111 -84 58z"/><path d="M4916 939 c-3 -8 -12 -49 -20 -92 -7 -43 -15 -80 -17 -81 -2 -2 -33 -18 -69 -36 -160 -81 -308 -209 -329 -287 -15 -53 -14 -93 3 -99 26 -10 258 119 440 244 84 57 306 233 327 258 9 12 6 14 -19 14 -18 0 -66 -7 -107 -17 l-76 -16 -64 63 c-45 44 -66 59 -69 49z"/></g><g fill="#01acec"><path d="M4462 5964 c2 -12 -12 -21 -57 -33 -221 -63 -307 -206 -226 -376 118 -247 552 -445 909 -414 142 12 254 60 306 132 l20 27 -49 51 c-117 119 -362 318 -525 424 -70 45 -360 205 -373 205 -4 0 -7 -7 -5 -16z"/><path d="M3200 5652 l0 -59 -37 -11 c-60 -18 -148 -78 -178 -122 -140 -202 163 -431 517 -391 268 30 425 187 347 347 -57 118 -241 204 -440 204 l-85 0 -53 45 c-29 25 -57 45 -62 45 -5 0 -9 -26 -9 -58z"/><path d="M5422 5174 c-167 -83 -210 -289 -104 -499 65 -130 224 -288 359 -358 121 -62 187 -80 284 -75 102 4 108 11 79 85 -48 122 -173 364 -257 495 -111 173 -269 378 -292 378 -9 0 -40 -12 -69 -26z"/><path d="M2047 4463 c-4 -71 -11 -129 -16 -131 -5 -2 -48 -26 -96 -55 -195 -116 -298 -272 -299 -452 -1 -236 165 -421 459 -511 84 -26 102 -28 270 -28 214 0 269 11 419 83 226 109 350 269 363 467 7 103 -18 183 -87 282 -80 114 -208 197 -386 249 -80 24 -107 27 -267 28 l-179 2 -38 47 c-55 66 -127 146 -132 146 -3 0 -8 -57 -11 -127z"/></g><g fill="#e93969"><path d="M2522 1367 l3 -128 -70 -28 c-187 -73 -299 -195 -312 -340 -17 -198 215 -398 542 -466 249 -52 555 -18 750 83 98 51 196 149 220 222 42 124 11 237 -95 340 -147 144 -407 230 -695 230 l-130 0 -108 108 -109 107 4 -128z"/><path d="M2826 298 c-3 -7 -4 -24 -3 -36 2 -20 -6 -27 -50 -43 -54 -21 -103 -67 -103 -98 0 -44 19 -50 190 -66 91 -9 226 -14 300 -13 l135 3 9 26 c14 40 -1 76 -42 104 -46 30 -166 62 -269 71 -57 5 -86 12 -108 28 -48 35 -55 38 -59 24z"/></g><g fill="#02b6c4"><path d="M2874 6260 c-66 -5 -174 -18 -240 -31 -65 -12 -131 -24 -146 -26 -38 -7 -35 -18 11 -48 105 -70 295 -108 531 -108 238 0 424 36 542 106 45 26 85 64 76 72 -29 29 -531 52 -774 35z"/><path d="M3753 6183 c-32 -22 -31 -72 2 -107 33 -36 117 -73 207 -92 101 -22 278 -15 332 12 22 10 41 24 43 30 6 19 -213 95 -424 148 -117 30 -130 31 -160 9z"/><path d="M2285 6150 c-162 -46 -467 -167 -550 -217 -28 -18 -8 -29 77 -44 256 -46 663 129 608 261 -7 17 -18 30 -24 29 -6 0 -56 -13 -111 -29z"/><path d="M2506 5978 c-3 -13 -7 -32 -8 -42 -2 -13 -20 -27 -54 -40 -71 -29 -149 -81 -175 -117 -29 -41 -36 -107 -16 -146 81 -156 435 -202 684 -88 66 30 149 106 164 152 45 137 -123 243 -386 243 -108 0 -113 1 -151 30 -47 36 -52 36 -58 8z"/><path d="M3538 5963 c-2 -21 -11 -29 -46 -41 -61 -20 -112 -71 -112 -112 0 -44 59 -101 137 -131 80 -30 265 -39 346 -15 68 20 127 71 127 111 0 82 -128 152 -315 171 -42 4 -80 14 -97 25 -34 24 -36 24 -40 -8z"/><path d="M960 3580 l0 -175 -63 -34 c-36 -20 -96 -68 -143 -115 -127 -127 -188 -272 -187 -451 0 -215 107 -431 286 -575 83 -68 240 -144 362 -177 88 -23 118 -26 250 -26 164 1 227 13 382 72 151 59 289 171 381 310 63 95 77 151 77 311 0 154 -12 201 -76 312 -171 293 -565 482 -944 452 l-117 -9 -79 110 c-43 60 -90 124 -104 140 l-24 30 -1 -175z"/></g><g fill="#eb4e28"><path d="M3264 3734 c1 -254 -1 -298 -14 -305 -8 -4 -76 -37 -152 -72 -387 -183 -643 -457 -740 -792 -30 -104 -33 -334 -5 -432 52 -185 144 -343 276 -473 201 -199 444 -333 735 -406 205 -52 337 -67 549 -62 l177 4 0 -55 c0 -31 -4 -60 -8 -66 -4 -5 -38 -26 -77 -45 -95 -47 -199 -148 -215 -209 -16 -61 -5 -105 37 -152 71 -78 191 -119 349 -119 327 1 620 187 589 373 -10 56 -81 126 -161 158 -52 20 -79 23 -224 26 l-164 3 -43 42 c-23 23 -41 43 -40 45 2 1 41 10 88 19 601 112 1055 450 1204 896 44 134 59 241 52 388 -10 232 -101 433 -276 613 -107 111 -209 185 -352 255 -177 88 -364 145 -564 173 -99 14 -437 18 -525 7 l-55 -7 -110 126 c-232 267 -318 363 -324 363 -4 0 -7 -133 -7 -296z"/><path d="M3706 402 l-7 -59 -52 -12 c-109 -24 -222 -92 -253 -153 -21 -40 -11 -71 31 -104 l35 -27 150 22 c179 25 408 82 580 144 154 55 200 75 200 86 0 12 -67 39 -145 58 -49 11 -122 17 -238 18 l-167 2 -58 39 c-31 22 -60 40 -63 42 -4 1 -9 -24 -13 -56z"/></g><g fill="#20af8c"><path d="M2600 5165 l0 -75 -71 -36 c-87 -43 -162 -112 -197 -179 -33 -65 -35 -160 -4 -220 72 -139 261 -227 486 -226 197 1 322 46 437 160 57 56 70 75 84 125 47 164 -60 312 -278 382 -68 22 -104 27 -205 29 l-124 2 -57 57 c-31 31 -60 56 -64 56 -4 0 -7 -34 -7 -75z"/><path d="M385 2305 c6 -96 8 -101 38 -127 22 -19 43 -28 67 -28 19 0 49 -2 65 -5 36 -7 60 7 52 29 -5 11 -19 16 -51 16 l-45 0 -57 98 c-32 53 -62 102 -67 107 -6 6 -7 -29 -2 -90z"/></g><g fill="#28b056"><path d="M1555 5811 c-39 -5 -72 -22 -155 -78 -58 -39 -145 -104 -195 -145 -87 -72 -90 -76 -89 -115 1 -55 32 -95 96 -124 67 -29 208 -32 308 -6 144 38 295 139 341 228 28 56 26 130 -6 167 -49 58 -178 90 -300 73z"/><path d="M2014 5420 c-6 -35 -13 -43 -59 -69 -166 -94 -179 -243 -27 -318 51 -25 68 -28 157 -28 78 0 114 5 165 23 128 44 217 140 207 224 -7 54 -40 93 -105 125 -51 25 -69 28 -160 29 -97 1 -105 3 -131 28 -15 14 -30 26 -34 26 -4 0 -10 -18 -13 -40z"/><path d="M1017 5270 c-38 -5 -99 -18 -136 -29 -65 -20 -69 -23 -147 -116 -112 -136 -268 -372 -346 -522 -81 -157 -158 -333 -158 -362 0 -33 47 -118 91 -166 252 -274 863 -202 1241 144 198 182 295 414 254 609 -43 206 -205 363 -434 421 -94 25 -263 34 -365 21z"/><path d="M132 3943 c-36 -134 -64 -285 -65 -358 -2 -66 -1 -70 22 -73 29 -4 74 37 103 93 65 125 65 326 1 397 -28 31 -39 20 -61 -59z"/><path d="M396 3869 c-3 -17 -6 -48 -6 -68 0 -27 -8 -43 -32 -66 -39 -38 -75 -115 -89 -190 -26 -141 35 -288 137 -331 55 -23 142 -18 202 12 202 101 264 368 120 515 -56 56 -101 74 -192 75 l-78 0 -23 37 c-30 51 -32 52 -39 16z"/><path d="M46 3263 c-18 -5 -18 -14 -11 -201 9 -256 33 -451 77 -614 22 -85 24 -86 92 -67 52 14 136 95 168 161 79 162 60 394 -46 553 -42 63 -110 130 -155 151 -37 18 -95 26 -125 17z"/><path d="M393 2196 c4 -10 -10 -24 -39 -41 -60 -35 -107 -107 -100 -153 12 -76 226 -476 341 -638 42 -58 48 -63 109 -79 78 -21 214 -16 287 10 59 20 122 74 156 132 35 61 44 177 18 255 -70 215 -258 400 -486 479 -64 22 -67 22 -84 5 -12 -12 -25 -15 -39 -10 -12 4 -36 6 -55 6 -21 0 -46 8 -66 24 -36 27 -50 31 -42 10z"/></g></svg>