<svg width="77" height="79" viewBox="0 0 77 79" fill="none" xmlns="http://www.w3.org/2000/svg">
<g clip-path="url(#clip0)">
<path d="M35.53 53.582C36.118 52.9786 36.118 52.0022 35.53 51.3989C34.9413 50.7974 33.9878 50.7974 33.3986 51.3989C32.8111 52.0022 32.8111 52.9786 33.3986 53.582C33.9878 54.1835 34.9413 54.1835 35.53 53.582Z" fill="white"/>
<path d="M28.3965 16.9678C28.3965 26.3239 35.8301 33.9363 44.9671 33.9363C54.1042 33.9363 61.5378 26.3239 61.5378 16.9678C61.5378 7.61178 54.1042 0 44.9671 0C35.8301 0 28.3965 7.61178 28.3965 16.9678ZM58.5252 16.9678C58.5252 24.623 52.4431 30.851 44.9671 30.851C37.4911 30.851 31.409 24.623 31.409 16.9678C31.409 9.31327 37.4911 3.08534 44.9671 3.08534C52.4431 3.08534 58.5252 9.31327 58.5252 16.9678Z" fill="white"/>
<path d="M17.4268 78.5438C18.0107 79.1465 18.9613 79.1532 19.5528 78.5565L26.8563 71.1888C28.0971 69.9183 28.4744 68.0372 27.9288 66.402L29.4998 64.8506C30.3456 64.014 31.4593 63.5529 32.6365 63.5529H52.6629C56.2158 63.5529 59.5738 62.1558 62.1196 59.6189C62.2243 59.5147 61.3243 60.6002 75.7819 42.9066C77.9262 40.3089 77.6054 36.4081 75.0661 34.21C72.5427 32.0323 68.7626 32.3451 66.6124 34.8983L57.7232 44.2537C56.6007 42.8391 54.889 41.9574 53.0396 41.9574H36.2412C33.8508 40.9333 31.3145 40.415 28.6975 40.415C21.4435 40.415 15.1094 43.8457 11.7102 50.2779C10.2781 50.0001 8.76769 50.4437 7.68111 51.5563L0.514743 58.9162C-0.0703383 59.5171 -0.0715154 60.4893 0.512389 61.092L17.4268 78.5438ZM28.6969 43.4997C31.0043 43.4997 33.2351 43.9753 35.3288 44.9131C35.5196 44.9987 35.725 45.0427 35.9328 45.0427H53.0396C54.673 45.0427 56.0527 46.4067 56.0527 48.1274C56.0527 49.8289 54.7013 51.2128 53.0396 51.2128H40.7488C39.9171 51.2128 39.2425 51.9035 39.2425 52.7551C39.2425 53.6074 39.9171 54.2975 40.7488 54.2975H53.0396C56.3623 54.2975 59.0653 51.5298 59.0653 48.1274C59.0653 47.8562 59.0464 47.5874 59.0123 47.321C67.6113 38.2699 68.8239 36.9982 68.8757 36.9349C69.9493 35.6372 71.8552 35.4727 73.1231 36.5672C74.3921 37.666 74.5528 39.6164 73.4763 40.9213L59.9647 57.4612C57.9916 59.4007 55.4011 60.4682 52.6629 60.4682H32.6365C30.6741 60.4682 28.8164 61.2366 27.4073 62.6307L26.1271 63.8958L14.3254 51.8119C17.0836 46.5133 22.2593 43.4997 28.6969 43.4997ZM9.81306 53.7364C10.3099 53.2277 11.0727 53.136 11.6784 53.5194C11.9391 53.6821 11.1904 52.9842 24.7262 66.8251C25.3283 67.4417 25.2959 68.4241 24.7344 68.9991L18.5081 75.2801L3.7062 60.0077L9.81306 53.7364Z" fill="white"/>
<path d="M43.1592 7.71301V9.52058C41.4057 10.1571 40.1461 11.8718 40.1461 13.8831C40.1461 16.4344 42.1733 18.5108 44.6655 18.5108C45.496 18.5108 46.1717 19.2027 46.1717 20.0532C46.1717 20.9036 45.496 21.5955 44.6655 21.5955C44.0221 21.5955 43.327 21.1814 42.7095 20.4286C42.1739 19.7765 41.2238 19.6927 40.587 20.2406C39.9501 20.7891 39.8677 21.7619 40.4033 22.414C41.2085 23.3946 42.1556 24.0781 43.1592 24.4229V26.2232C43.1592 27.0755 43.8338 27.7656 44.6655 27.7656C45.4972 27.7656 46.1717 27.0755 46.1717 26.2232V24.4157C47.9252 23.7786 49.1848 22.0638 49.1848 20.0532C49.1848 17.5012 47.1577 15.4254 44.6655 15.4254C43.8349 15.4254 43.1592 14.7335 43.1592 13.8831C43.1592 13.0326 43.8349 12.3401 44.6655 12.3401C45.1993 12.3401 45.7626 12.6192 46.2947 13.1466C46.8928 13.739 47.8463 13.7228 48.4249 13.111C49.0035 12.4986 48.9877 11.5222 48.3902 10.9297C47.6256 10.1721 46.8604 9.74359 46.1717 9.50973V7.71301C46.1717 6.86076 45.4972 6.17004 44.6655 6.17004C43.8338 6.17004 43.1592 6.86076 43.1592 7.71301Z" fill="white"/>
</g>
<defs>
<clipPath id="clip0">
<rect width="77" height="79" fill="white"/>
</clipPath>
</defs>
</svg>
