<svg width="64" height="64" viewBox="0 0 64 64" fill="none" xmlns="http://www.w3.org/2000/svg">
<path d="M12.8009 0C7.50717 0.00112497 3.20117 4.30712 3.20117 9.60084C3.20117 14.8946 7.50717 19.1996 12.8009 19.1996C18.0946 19.1996 22.4006 14.8936 22.4006 9.59984C22.4006 4.306 18.0946 0 12.8009 0ZM12.8009 16.0007C9.26612 16.0007 6.40108 13.1356 6.40108 9.60084C6.40108 6.06607 9.26612 3.20103 12.8009 3.20103C16.3357 3.20103 19.2007 6.06607 19.2007 9.60084C19.2007 13.1356 16.3358 16.0007 12.8009 16.0007Z" fill="white"/>
<path d="M60.7996 15.9995H28.8005C27.033 15.9995 25.6006 17.432 25.6006 19.1994V21.6431L28.8005 23.2431V19.1994H60.7996V44.7976H28.8005V40.9939L25.6006 40.1951V44.7976C25.6006 46.565 27.033 47.9975 28.8005 47.9975H41.9756L33.8286 61.5747C33.3721 62.3309 33.6195 63.3154 34.379 63.7688C35.1288 64.2285 36.1165 63.981 36.573 63.2184L43.2001 52.1723V62.3961C43.2001 63.2803 43.9158 63.996 44.8 63.996C45.6843 63.996 46.4 63.2803 46.4 62.3961V52.1723L53.0281 63.2174C53.3278 63.7176 53.8589 63.995 54.3998 63.995C54.6814 63.995 54.9651 63.9235 55.2221 63.7668C55.9816 63.3134 56.228 62.3289 55.7725 61.5727L47.6255 47.9955H60.7995C62.5669 47.9955 63.9994 46.563 63.9994 44.7956V19.1994C63.9995 17.432 62.567 15.9995 60.7996 15.9995Z" fill="white"/>
<path d="M55.9369 25.1587C55.6957 24.3086 54.8115 23.8084 53.9593 24.0622L34.2147 29.7037C33.9844 29.4808 33.7263 29.2856 33.4319 29.1373L20.6323 22.7375C20.1875 22.5157 19.6979 22.3994 19.2008 22.3994H6.40117C4.85459 22.3994 3.52976 23.5055 3.25252 25.0266L0.0526093 42.6249C-0.117011 43.5583 0.135857 44.5193 0.743839 45.2477C1.35182 45.9762 2.25205 46.3976 3.20139 46.3976H5.24608L6.41192 61.0499C6.54417 62.7138 7.93188 63.9959 9.60121 63.9959H16.001C17.6318 63.9959 19.0014 62.7703 19.1817 61.1501L21.9773 35.9914L31.2251 38.3028C31.4811 38.3668 31.7413 38.3977 32.0006 38.3977C32.7067 38.3977 33.401 38.1641 33.9696 37.7203C34.7461 37.1145 35.2005 36.1833 35.2005 35.1978V32.7477L54.8404 27.1361C55.6905 26.8952 56.1811 26.0077 55.9369 25.1587ZM32.0004 35.1989L19.2008 31.999L16.0009 60.7971H9.60108L8.20162 43.1977H3.20127L6.40117 25.5993H11.201V35.3334C11.201 36.2176 11.9168 36.9334 12.801 36.9334C13.6852 36.9334 14.4009 36.2176 14.4009 35.3334V25.5992H19.2008L32.0004 31.999V35.1989Z" fill="white"/>
</svg>
