<svg width="32" height="32" viewBox="0 0 32 32" fill="none" xmlns="http://www.w3.org/2000/svg">
<path d="M16.6667 8.83329V12.8333L22 7.49996L16.6667 2.16663V6.16663C13.8377 6.16663 11.1246 7.29043 9.12419 9.29082C7.12381 11.2912 6 14.0043 6 16.8333C6 18.9266 6.61333 20.8733 7.65333 22.5133L9.6 20.5666C8.98461 19.4186 8.66391 18.1358 8.66667 16.8333C8.66667 14.7116 9.50952 12.6767 11.0098 11.1764C12.5101 9.67615 14.5449 8.83329 16.6667 8.83329ZM25.68 11.1533L23.7333 13.1C24.32 14.22 24.6667 15.5 24.6667 16.8333C24.6667 18.955 23.8238 20.9899 22.3235 22.4901C20.8232 23.9904 18.7884 24.8333 16.6667 24.8333V20.8333L11.3333 26.1666L16.6667 31.5V27.5C19.4956 27.5 22.2088 26.3762 24.2091 24.3758C26.2095 22.3754 27.3333 19.6623 27.3333 16.8333C27.3333 14.74 26.72 12.7933 25.68 11.1533Z" fill="white"/>
</svg>
