<svg width="44" height="44" viewBox="0 0 44 44" fill="none" xmlns="http://www.w3.org/2000/svg">
<path d="M38.7953 35.9532C41.0393 33.2533 42.5999 30.0528 43.3453 26.6222C44.0907 23.1916 43.9989 19.632 43.0776 16.2444C42.1564 12.8569 40.4327 9.74103 38.0526 7.16048C35.6724 4.57993 32.7058 2.6106 29.4035 1.41909C26.1013 0.22757 22.5607 -0.151079 19.0812 0.315171C15.6017 0.781421 12.2857 2.07885 9.41362 4.09771C6.54159 6.11657 4.19804 8.79746 2.58124 11.9136C0.964434 15.0297 0.121933 18.4894 0.125008 22C0.126188 27.1035 1.92461 32.0435 5.2047 35.9532L5.17345 35.9797C5.28282 36.111 5.40782 36.2235 5.52032 36.3532C5.66095 36.5141 5.81251 36.6657 5.95782 36.8219C6.39532 37.2969 6.84532 37.7532 7.3172 38.1813C7.46095 38.3125 7.60938 38.4344 7.7547 38.5594C8.2547 38.9907 8.76876 39.4 9.30157 39.7813C9.37032 39.8282 9.43282 39.8891 9.50157 39.9375V39.9188C13.1611 42.4941 17.5267 43.8762 22.0016 43.8762C26.4764 43.8762 30.842 42.4941 34.5016 39.9188V39.9375C34.5703 39.8891 34.6313 39.8282 34.7016 39.7813C35.2328 39.3985 35.7484 38.9907 36.2484 38.5594C36.3938 38.4344 36.5422 38.311 36.6859 38.1813C37.1578 37.7516 37.6078 37.2969 38.0453 36.8219C38.1906 36.6657 38.3406 36.5141 38.4828 36.3532C38.5938 36.2235 38.7203 36.111 38.8297 35.9782L38.7953 35.9532ZM22 9.50005C23.3907 9.50005 24.7501 9.91242 25.9064 10.685C27.0626 11.4576 27.9639 12.5558 28.496 13.8406C29.0282 15.1253 29.1675 16.5391 28.8962 17.903C28.6249 19.267 27.9552 20.5198 26.9719 21.5031C25.9885 22.4865 24.7357 23.1561 23.3717 23.4274C22.0078 23.6987 20.5941 23.5595 19.3093 23.0273C18.0245 22.4951 16.9263 21.5939 16.1537 20.4376C15.3811 19.2814 14.9688 17.9219 14.9688 16.5313C14.9688 14.6665 15.7095 12.8781 17.0282 11.5595C18.3468 10.2408 20.1352 9.50005 22 9.50005ZM9.51095 35.9532C9.53805 33.9016 10.3718 31.9431 11.8318 30.5015C13.2918 29.0599 15.2607 28.2511 17.3125 28.25H26.6875C28.7393 28.2511 30.7082 29.0599 32.1682 30.5015C33.6282 31.9431 34.462 33.9016 34.4891 35.9532C31.0623 39.0412 26.6129 40.7502 22 40.7502C17.3871 40.7502 12.9378 39.0412 9.51095 35.9532Z" fill="black"/>
</svg>
