<svg width="48" height="48" viewBox="0 0 48 48" fill="none" xmlns="http://www.w3.org/2000/svg">
<g clip-path="url(#clip0)">
<path d="M8.76451 0C3.90936 0 0 3.90936 0 8.76451V39.2355C0 44.0907 3.90936 48 8.76451 48H25.2795V29.235H20.3175V22.479H25.2795V16.707C25.2795 12.1722 28.2113 8.00851 34.965 8.00851C37.6995 8.00851 39.7215 8.27102 39.7215 8.27102L39.5625 14.58C39.5625 14.58 37.5003 14.5606 35.25 14.5606C32.8145 14.5606 32.424 15.6827 32.424 17.5456V22.4791H39.756L39.4365 29.2351H32.424V48.0001H39.2355C44.0906 48.0001 48 44.0907 48 39.2356V8.76456C48 3.90941 44.0906 4.8e-05 39.2355 4.8e-05H8.76446L8.76451 0Z" fill="white"/>
</g>
<defs>
<clipPath id="clip0">
<rect width="48" height="48" fill="white"/>
</clipPath>
</defs>
</svg>
