<svg width="736" height="527" viewBox="0 0 736 527" fill="none" xmlns="http://www.w3.org/2000/svg">
<path opacity="0.3" d="M430.347 28.6569H385.195V45.4772H430.347V28.6569Z" fill="#30BAFF"/>
<path opacity="0.3" d="M505.392 0H460.24V16.8203H505.392V0Z" fill="#30BAFF"/>
<path opacity="0.3" d="M508.506 52.0185H463.354V68.8388H508.506V52.0185Z" fill="#30BAFF"/>
<path opacity="0.3" d="M364.02 71.3307H318.868V88.1511H364.02V71.3307Z" fill="#30BAFF"/>
<path opacity="0.3" d="M349.697 140.481H304.545V157.301H349.697V140.481Z" fill="#30BAFF"/>
<path opacity="0.3" d="M417.891 138.924H372.739V155.744H417.891V138.924Z" fill="#30BAFF"/>
<path d="M460.24 8.30408L430.347 36.6775L463.354 60.4287" stroke="#3F3D56" stroke-miterlimit="10"/>
<path d="M385.195 36.6777L341.444 71.3307" stroke="#3F3D56" stroke-miterlimit="10"/>
<path d="M327.12 140.468L341.444 88.1509L395.315 138.923" stroke="#3F3D56" stroke-miterlimit="10"/>
<path opacity="0.3" d="M125.802 45.985H80.6504V62.8054H125.802V45.985Z" fill="#30BAFF"/>
<path opacity="0.3" d="M200.847 17.3281H155.695V34.1485H200.847V17.3281Z" fill="#30BAFF"/>
<path opacity="0.3" d="M203.961 69.3466H158.81V86.1669H203.961V69.3466Z" fill="#30BAFF"/>
<path opacity="0.3" d="M59.4759 88.6588H14.3242V105.479H59.4759V88.6588Z" fill="#30BAFF"/>
<path opacity="0.3" d="M45.1517 157.809H0V174.629H45.1517V157.809Z" fill="#30BAFF"/>
<path opacity="0.3" d="M113.346 156.252H68.1943V173.072H113.346V156.252Z" fill="#30BAFF"/>
<path d="M155.695 25.6322L125.802 54.0056L158.809 77.7568" stroke="#3F3D56" stroke-miterlimit="10"/>
<path d="M80.6508 54.0058L36.9004 88.6588" stroke="#3F3D56" stroke-miterlimit="10"/>
<path d="M22.5762 157.796L36.8998 105.479L90.7707 156.252" stroke="#3F3D56" stroke-miterlimit="10"/>
<path d="M203.961 77.7568H255.166" stroke="#3F3D56" stroke-miterlimit="10"/>
<path d="M285.266 69.1482H232.181V85.9173H285.266V69.1482Z" fill="#3AA7DE"/>
<path d="M285.335 77.5328H318.869" stroke="#3F3D56" stroke-miterlimit="10"/>
<path d="M231.926 77.5328L200.847 25.6324" stroke="#3F3D56" stroke-miterlimit="10"/>
<path d="M386.129 454C521.919 454 632 429.475 632 399.221C632 368.967 521.919 344.442 386.129 344.442C250.338 344.442 140.258 368.967 140.258 399.221C140.258 429.475 250.338 454 386.129 454Z" fill="#F2F2F2"/>
<path d="M500.115 218.899L476.139 339.062H470.949L470.378 338.174L468.725 335.601L489.487 223.349L492.638 222.029L500.115 218.899Z" fill="#47465A"/>
<path opacity="0.1" d="M492.638 222.029L470.378 338.174L468.725 335.601L489.487 223.349L492.638 222.029Z" fill="black"/>
<path d="M536.203 382.578L530.038 384.566L528.54 385.05L526.563 380.6L492.639 225.802L496.166 225.011L503.576 223.349L536.203 382.578Z" fill="#47465A"/>
<path opacity="0.1" d="M530.038 384.566L528.54 385.05L526.563 380.6L492.639 225.802L496.166 225.011L530.038 384.566Z" fill="black"/>
<path d="M242.315 218.899L236.877 374.666L230.645 376.05L230.203 376.149L228.473 372.935L231.933 220.382L235.263 219.908L242.315 218.899Z" fill="#47465A"/>
<path opacity="0.1" d="M235.263 219.908L230.645 376.05L230.203 376.149L228.473 372.935L231.933 220.382L235.263 219.908Z" fill="black"/>
<path d="M274.694 429.803L268.248 430.915L267.526 431.039L265.549 426.836L234.158 223.349L235.063 223.075L239.843 221.619L274.694 429.803Z" fill="#47465A"/>
<path opacity="0.1" d="M268.248 430.915L267.526 431.039L265.549 426.836L234.158 223.349L235.063 223.075L268.248 430.915Z" fill="black"/>
<path d="M411.133 206.289L435.134 236.967C435.956 238.018 437.035 238.84 438.267 239.354C439.499 239.868 440.843 240.057 442.168 239.901L540.694 228.359C542.589 228.137 544.336 227.227 545.603 225.801C546.871 224.376 547.572 222.534 547.572 220.626V197.883L411.133 206.289Z" fill="#7A799C"/>
<path d="M491.958 211.234H498.632V220.869C498.632 221.527 498.37 222.158 497.905 222.623C497.44 223.088 496.81 223.35 496.152 223.35H494.438C493.78 223.35 493.149 223.088 492.684 222.623C492.219 222.158 491.958 221.527 491.958 220.869V211.234Z" fill="#47465A"/>
<path d="M234.158 225.822L258.159 256.5C258.982 257.551 260.061 258.373 261.293 258.887C262.525 259.401 263.868 259.589 265.194 259.434L363.72 247.891C365.614 247.669 367.361 246.759 368.629 245.334C369.897 243.908 370.597 242.067 370.597 240.159V217.416L234.158 225.822Z" fill="#7A799C"/>
<path d="M314.983 230.767H321.657V240.402C321.657 241.06 321.396 241.691 320.931 242.156C320.466 242.621 319.835 242.882 319.177 242.882H317.463C316.805 242.882 316.175 242.621 315.71 242.156C315.245 241.691 314.983 241.06 314.983 240.402V230.767H314.983Z" fill="#47465A"/>
<path d="M261.732 241.359L554.799 207.211C555.719 207.104 556.581 206.703 557.255 206.067C557.93 205.431 558.382 204.594 558.544 203.681C558.705 202.768 558.568 201.827 558.153 200.998C557.738 200.169 557.067 199.496 556.239 199.079L503.814 172.706C493.489 167.511 481.895 165.375 470.397 166.547L210.03 193.104C209.099 193.201 208.214 193.559 207.477 194.136C206.74 194.713 206.18 195.486 205.861 196.367C205.543 197.247 205.479 198.2 205.677 199.115C205.875 200.03 206.326 200.871 206.979 201.542L237.299 232.659C240.437 235.879 244.271 238.338 248.506 239.846C252.741 241.354 257.266 241.871 261.732 241.359Z" fill="white"/>
<path d="M587.041 202.583L583.906 200.85C583.906 200.85 580.522 203.342 577.765 213.84C575.008 224.339 582.918 213.954 582.918 213.954L586.378 206.784L587.041 202.583Z" fill="#47465A"/>
<path d="M553.504 298.761C553.504 298.761 550.291 313.843 548.808 318.046C548.082 320.103 544.572 321.985 540.681 323.424C537.232 324.709 533.661 325.641 530.023 326.205C525.821 326.7 471.938 318.293 445.737 312.606C428.087 308.777 425.805 304.383 426.196 301.925C426.322 301.194 426.673 300.519 427.2 299.997C427.2 299.997 453.153 282.442 462.298 274.036C471.443 265.629 489.487 272.305 509.261 275.766C529.034 279.228 553.504 298.761 553.504 298.761Z" fill="#47465A"/>
<path d="M583.907 200.85C583.907 200.85 596.018 208.762 555.235 225.08C555.235 225.08 533.068 237.583 535.953 289.084C536.09 291.4 536.795 293.647 538.006 295.625C542.214 302.548 551.231 320.073 536.203 322.249V326.205C536.203 326.205 563.391 312.606 566.358 300.986C569.324 289.365 579.21 224.833 584.154 218.899C589.097 212.965 592.311 203.57 583.907 200.85Z" fill="#47465A"/>
<path opacity="0.1" d="M540.681 323.424C537.232 324.709 533.661 325.641 530.023 326.205C525.821 326.7 471.938 318.293 445.737 312.606C428.087 308.777 425.805 304.383 426.196 301.925C437.798 305.894 475.472 318.488 488.993 319.529C505.059 320.766 535.753 324.202 538.079 321.866C538.973 320.966 539.89 321.915 540.681 323.424Z" fill="black"/>
<path d="M399.516 426.341L422.997 319.035C422.997 319.035 427.199 307.661 436.839 308.156L445.737 312.606C445.737 312.606 430.906 309.145 427.693 320.518C424.48 331.892 403.965 426.341 403.965 426.341H399.516Z" fill="#47465A"/>
<path d="M455.872 377.386L465.264 311.865H469.467L459.827 377.386H455.872Z" fill="#47465A"/>
<path d="M545.842 441.423L536.943 339.062C536.943 339.062 536.943 330.408 541.392 326.205C545.842 322.002 560.204 310.012 560.204 310.012C560.204 310.012 563.885 309.145 566.851 317.551C569.817 325.958 590.333 410.023 590.333 410.023L586.378 411.753L560.919 314.832L543.37 331.397C543.37 331.397 539.909 337.579 541.64 343.265C543.37 348.952 549.796 441.423 549.796 441.423H545.842Z" fill="#47465A"/>
<path d="M518.406 323.733L540.651 330.161L545.595 325.463L532.742 323.733H518.406Z" fill="#47465A"/>
<path d="M320.645 143.267L324.252 197.388L403.099 189.724L399.962 136.817C399.92 136.109 399.737 135.416 399.423 134.779C399.109 134.143 398.671 133.575 398.135 133.11C397.598 132.646 396.974 132.293 396.3 132.073C395.625 131.853 394.913 131.771 394.206 131.83L325.506 137.61C324.117 137.727 322.828 138.386 321.919 139.444C321.009 140.502 320.552 141.875 320.645 143.267Z" fill="#7A799C"/>
<path d="M429.548 205.3L350.947 213.878L347.981 214.201L324.994 199.367V196.152L403.1 189.116L429.548 205.3Z" fill="#7A799C"/>
<path opacity="0.1" d="M350.947 213.878L347.981 214.201L324.994 199.367V196.489L350.947 213.878Z" fill="black"/>
<path d="M325.982 142.746L328.702 190.96L397.91 184.532L395.438 137.554L325.982 142.746Z" fill="#9493B6"/>
<path opacity="0.1" d="M367.26 204.311L375.664 209.998L401.122 207.525L392.471 202.086L367.26 204.311Z" fill="black"/>
<path d="M332.903 197.388L343.532 205.3L411.504 198.872L399.393 190.96L332.903 197.388Z" fill="#9493B6"/>
<path d="M503.699 124.326H453.523V174.518H503.699V124.326Z" fill="#FF6584"/>
<path opacity="0.1" d="M503.699 124.326H453.523V174.518H503.699V124.326Z" fill="black"/>
<path d="M470.803 147.554C470.803 147.554 477.881 166.73 470.803 170.27C463.725 173.81 496.167 170.27 496.167 170.27L505.309 162.895C505.309 162.895 484.665 156.994 487.614 143.424C490.563 129.853 470.803 147.554 470.803 147.554Z" fill="#FBBEBE"/>
<path opacity="0.1" d="M470.803 147.554C470.803 147.554 477.881 166.73 470.803 170.27C463.725 173.81 496.167 170.27 496.167 170.27L505.309 162.895C505.309 162.895 484.665 156.994 487.614 143.424C490.563 129.853 470.803 147.554 470.803 147.554Z" fill="black"/>
<path d="M412.703 339.904C412.703 339.904 439.246 377.371 434.822 387.697C430.399 398.022 432.758 404.513 423.91 408.053C415.063 411.593 412.703 418.084 420.371 417.788C428.039 417.493 438.067 415.428 439.541 412.773C441.016 410.118 444.555 397.432 449.569 395.662C454.582 393.892 464.02 387.107 457.237 378.846C450.453 370.586 433.362 340.16 434.682 337.082C436.002 334.004 412.703 339.904 412.703 339.904Z" fill="#FBBEBE"/>
<path d="M468.149 265.855C468.149 265.855 413.293 269.395 399.137 282.671C384.98 295.947 411.523 345.51 414.473 346.1C417.422 346.69 440.426 344.329 439.541 337.839C438.656 331.349 423.025 304.797 423.025 304.797C423.025 304.797 443.375 297.422 454.582 295.652C465.789 293.882 478.176 285.621 478.176 285.621L468.149 265.855Z" fill="#707070"/>
<path d="M443.08 257.595C443.08 257.595 443.965 290.342 452.223 291.522C460.481 292.702 452.223 266.445 452.223 266.445L451.928 256.415L443.08 257.595Z" fill="#FBBEBE"/>
<path d="M468.149 171.745C468.149 171.745 452.813 167.32 449.863 179.121C446.914 190.921 446.029 231.633 446.029 231.633L440.721 264.085C440.721 264.085 450.453 261.135 452.518 262.61L464.904 246.974L468.149 171.745Z" fill="#3AA7DE"/>
<path opacity="0.1" d="M468.149 171.745C468.149 171.745 452.813 167.32 449.863 179.121C446.914 190.921 446.029 231.633 446.029 231.633L440.721 264.085C440.721 264.085 450.453 261.135 452.518 262.61L464.904 246.974L468.149 171.745Z" fill="black"/>
<path d="M489.104 346.187C489.104 346.187 499.411 366.456 505.604 366.161C511.798 365.866 517.696 362.03 520.646 374.126C523.595 386.222 520.056 382.977 523.595 390.057C527.134 397.137 527.724 409.528 520.941 412.478C514.157 415.428 507.964 415.723 507.669 412.478C507.374 409.233 513.567 409.233 506.489 397.727C499.411 386.222 484.37 365.276 478.176 363.211C471.983 361.145 489.104 346.187 489.104 346.187Z" fill="#FBBEBE"/>
<path d="M515.927 253.76C515.927 253.76 537.161 289.162 523.3 299.487C509.438 309.813 468.149 329.579 468.149 329.579C468.149 329.579 490.268 344.625 491.448 349.64C492.628 354.655 480.831 368.226 476.702 368.521C472.573 368.816 460.481 354.95 447.504 351.41C434.528 347.87 426.565 322.498 440.721 313.058C454.877 303.617 468.149 287.981 468.149 287.981L464.022 265.268L515.927 253.76Z" fill="#707070"/>
<path d="M497.519 135.7C497.519 148.246 484.672 158.617 472.13 158.617C466.107 158.617 460.331 156.224 456.072 151.963C451.813 147.703 449.421 141.925 449.421 135.901C449.421 129.876 451.813 124.098 456.072 119.838C460.331 115.578 466.107 113.184 472.13 113.184C484.672 113.184 497.519 123.154 497.519 135.7Z" fill="#FBBEBE"/>
<path d="M477.882 168.5C477.882 168.5 498.232 159.649 498.232 158.469C498.232 157.289 510.029 161.125 512.683 163.485C515.337 165.845 516.812 165.55 518.581 170.27C520.351 174.99 509.734 218.948 509.734 218.948C509.734 218.948 515.632 252.875 518.876 256.12C522.12 259.365 492.628 264.085 492.628 264.085C492.628 264.085 473.163 267.625 469.919 269.1C466.675 270.576 460.776 272.641 461.956 269.1C463.136 265.56 468.149 262.905 459.596 258.48C459.596 258.48 462.546 244.024 459.596 237.534C456.647 231.043 443.081 207.442 453.993 190.331C464.905 173.22 469.919 167.025 469.919 167.025C469.919 167.025 473.753 170.27 477.882 168.5Z" fill="#3AA7DE"/>
<path d="M484.369 249.039C484.369 249.039 461.365 259.245 454.435 260.19C447.504 261.135 426.564 266.445 438.066 271.165C449.568 275.886 466.969 268.805 466.969 268.805L491.448 258.48L484.369 249.039Z" fill="#FBBEBE"/>
<path opacity="0.1" d="M509.137 167.595C509.137 167.595 517.631 163.485 519.991 177.94C522.35 192.396 530.608 238.124 519.991 244.909C509.373 251.694 484.895 262.61 484.895 262.61C484.895 262.61 470.443 252.875 477.227 249.334C484.01 245.794 500.231 235.764 502.59 232.223C504.949 228.683 507.333 189.167 503.204 182.677C499.075 176.187 509.137 167.595 509.137 167.595Z" fill="black"/>
<path d="M508.554 164.075C508.554 164.075 520.351 163.485 522.71 177.94C525.07 192.396 533.328 238.124 522.71 244.909C512.093 251.694 487.614 262.61 487.614 262.61C487.614 262.61 473.163 252.875 479.946 249.334C486.73 245.794 502.95 235.764 505.31 232.223C507.669 228.683 503.54 191.806 499.411 185.316C495.282 178.825 508.554 164.075 508.554 164.075Z" fill="#3AA7DE"/>
<path d="M466.537 97.6606C462.916 98.1535 459.033 99.4784 457.211 102.647C456.319 104.197 456.031 106.016 455.345 107.667C453.449 112.224 448.847 114.946 445.524 118.594C441.193 123.349 439.043 130.515 441.597 136.418C442.586 138.704 444.192 140.662 445.41 142.835C448.808 148.896 448.989 156.175 449.086 163.123L449.276 176.785C449.305 178.871 449.328 181 448.7 182.989C448.072 184.979 446.67 186.842 444.681 187.47C446.876 188.231 449.261 188.237 451.459 187.486C453.657 186.735 455.541 185.271 456.812 183.327C457.083 185.047 456.928 186.808 456.361 188.455C455.794 190.102 454.831 191.585 453.558 192.773C458.965 191.499 463.499 187.565 466.356 182.8C469.212 178.034 470.537 172.491 471.13 166.966C471.444 164.044 471.555 161.023 470.632 158.233C469.982 156.267 468.848 154.506 467.772 152.738C464.997 148.18 462.499 143.332 461.605 138.072C460.71 132.811 461.608 127.039 465.023 122.939C466.334 121.355 467.985 120.087 469.854 119.23C471.723 118.373 473.761 117.948 475.816 117.989C477.871 118.068 479.872 118.674 481.626 119.748C483.38 120.822 484.829 122.329 485.835 124.124C486.623 125.609 487.746 127.622 489.345 127.1C489.641 126.975 489.93 126.833 490.211 126.675C491.993 125.864 494.018 127.465 494.805 129.26C497.284 134.92 492.716 141.099 492.244 147.261C491.805 152.993 494.999 158.399 498.818 162.696C505.415 170.086 514.031 175.381 523.602 177.927C522.201 177.574 520.945 176.794 520.007 175.693C523.899 175.849 527.795 175.522 531.606 174.721C527.456 171.593 523.277 168.438 519.813 164.564C516.348 160.69 513.604 156.003 512.857 150.859C511.854 143.956 514.425 136.48 511.486 130.154C508.799 124.371 502.136 121.139 499.703 115.244C497.231 109.257 495.629 104.055 489.085 101.448C481.942 98.6036 474.254 96.6101 466.537 97.6606Z" fill="#FF6584"/>
<path fill-rule="evenodd" clip-rule="evenodd" d="M301.154 1.16251C413.796 3.75877 541.108 7.52403 606.648 80.8126C670.041 151.7 626.134 245.728 594.419 329.099C566.525 402.427 529.445 477.936 442.985 511.045C356.701 544.086 259.899 520.028 171.326 491.118C72.4983 458.861 -33.2175 423.361 -70.5789 343.418C-113.471 251.64 -107.606 140.179 -27.2569 66.202C50.5387 -5.42469 182.549 -1.57116 301.154 1.16251Z" fill="#3AA7DE" fill-opacity="0.13"/>
</svg>
