<svg width="804" height="857" viewBox="0 0 804 857" fill="none" xmlns="http://www.w3.org/2000/svg">
<path fill-rule="evenodd" clip-rule="evenodd" d="M639.763 199.437C749.813 257.784 873.804 324.502 904.257 425.249C933.712 522.694 846.356 588.398 776.028 650.237C714.172 704.627 642.222 756.487 541.331 744.368C440.647 732.275 356.284 661.82 282.32 590.936C199.792 511.846 111.977 426.319 112.472 333.371C113.039 226.663 170.974 125.848 284.947 96.8987C395.298 68.8693 523.889 138.002 639.763 199.437Z" fill="#3AA7DE" fill-opacity="0.13"/>
<g clip-path="url(#clip0)">
<path d="M291.578 612.495C287.995 613.754 284.147 614.07 280.406 613.411C276.665 612.752 273.157 611.141 270.22 608.733C262.739 602.455 260.393 592.113 258.485 582.536L252.84 554.21L264.658 562.346C273.157 568.197 281.847 574.235 287.732 582.71C293.616 591.185 296.185 602.753 291.457 611.923" fill="#E6E6E6"/>
<path d="M290.568 646.789C291.764 638.078 292.994 629.255 292.155 620.451C291.41 612.632 289.024 604.994 284.166 598.732C281.588 595.415 278.451 592.572 274.895 590.332C273.968 589.747 273.115 591.216 274.038 591.799C280.19 595.686 284.948 601.426 287.627 608.192C290.585 615.715 291.06 623.916 290.55 631.908C290.242 636.741 289.589 641.543 288.93 646.338C288.878 646.555 288.911 646.783 289.021 646.977C289.131 647.171 289.311 647.316 289.523 647.383C289.741 647.441 289.972 647.412 290.168 647.301C290.363 647.19 290.507 647.006 290.568 646.789Z" fill="#F2F2F2"/>
<path d="M279.046 631.375C277.509 633.711 275.397 635.611 272.912 636.893C270.427 638.175 267.654 638.796 264.86 638.696C257.678 638.355 251.691 633.344 246.301 628.586L230.36 614.514L240.911 614.009C248.498 613.646 256.281 613.307 263.507 615.647C270.734 617.986 277.399 623.616 278.72 631.095" fill="#E6E6E6"/>
<path d="M293.948 651.797C288.191 641.612 281.513 630.293 269.581 626.675C266.263 625.672 262.784 625.313 259.332 625.617C258.244 625.71 258.515 627.387 259.601 627.294C265.389 626.813 271.165 628.341 275.958 631.62C280.57 634.759 284.16 639.122 287.2 643.749C289.061 646.584 290.729 649.538 292.397 652.489C292.93 653.432 294.488 652.751 293.948 651.797V651.797Z" fill="#F2F2F2"/>
<path d="M448.26 447.762L322.742 551.772C321.163 553.078 319.13 553.704 317.089 553.513C315.049 553.322 313.168 552.33 311.858 550.753L258.947 486.925C257.641 485.346 257.015 483.313 257.206 481.273C257.397 479.233 258.389 477.352 259.966 476.043L385.483 372.033C387.062 370.727 389.095 370.101 391.136 370.292C393.176 370.483 395.057 371.476 396.367 373.052L449.278 436.881C450.584 438.46 451.211 440.492 451.02 442.532C450.829 444.572 449.836 446.453 448.26 447.762Z" fill="#FFCA1C"/>
<path d="M443.229 444.63L320.597 546.249C319.783 546.922 318.736 547.244 317.685 547.146C316.634 547.048 315.665 546.536 314.99 545.724L264.47 484.781C263.797 483.967 263.475 482.92 263.573 481.869C263.671 480.818 264.183 479.849 264.995 479.175L387.627 377.556C388.441 376.883 389.488 376.561 390.539 376.659C391.59 376.758 392.559 377.269 393.234 378.081L443.754 439.025C444.427 439.838 444.749 440.885 444.651 441.936C444.552 442.987 444.041 443.956 443.229 444.63Z" fill="white"/>
<path d="M448.883 465.902L423.66 463.542L441.713 449.337L451.437 461.068C451.816 461.516 452.052 462.067 452.112 462.651C452.172 463.234 452.055 463.823 451.775 464.338C451.592 464.689 451.341 464.999 451.038 465.252C450.739 465.498 450.395 465.682 450.025 465.793C449.655 465.905 449.267 465.942 448.883 465.902Z" fill="#FFCA1C"/>
<path d="M398.231 420.733L336.194 472.14C335.815 472.454 335.378 472.69 334.908 472.835C334.437 472.981 333.943 473.032 333.453 472.986C332.963 472.94 332.487 472.798 332.052 472.568C331.617 472.338 331.231 472.025 330.917 471.646C330.603 471.267 330.366 470.83 330.221 470.36C330.076 469.89 330.025 469.396 330.071 468.906C330.117 468.416 330.259 467.94 330.489 467.505C330.719 467.07 331.032 466.684 331.411 466.37L393.448 414.963C393.827 414.649 394.264 414.413 394.735 414.268C395.205 414.122 395.699 414.071 396.189 414.117C396.679 414.163 397.155 414.305 397.59 414.535C398.026 414.765 398.411 415.078 398.725 415.457C399.039 415.836 399.276 416.273 399.421 416.743C399.566 417.213 399.617 417.707 399.571 418.197C399.525 418.687 399.383 419.163 399.154 419.598C398.924 420.033 398.61 420.419 398.231 420.733Z" fill="#CCCCCC"/>
<path d="M367.87 425.209L326.031 459.879C325.266 460.513 324.28 460.818 323.29 460.725C322.3 460.632 321.388 460.15 320.754 459.385C320.12 458.62 319.815 457.634 319.908 456.645C320.001 455.656 320.483 454.743 321.248 454.109L363.087 419.439C363.852 418.805 364.838 418.501 365.828 418.594C366.817 418.686 367.73 419.168 368.364 419.933C368.998 420.698 369.303 421.684 369.21 422.673C369.117 423.663 368.635 424.575 367.87 425.209Z" fill="#CCCCCC"/>
<path d="M303.04 496.114C309.508 496.114 314.751 490.872 314.751 484.405C314.751 477.938 309.508 472.696 303.04 472.696C296.572 472.696 291.328 477.938 291.328 484.405C291.328 490.872 296.572 496.114 303.04 496.114Z" fill="#3AA7DE"/>
<path d="M396.2 460.934C398.27 460.934 399.948 459.256 399.948 457.187C399.948 455.118 398.27 453.44 396.2 453.44C394.13 453.44 392.452 455.118 392.452 457.187C392.452 459.256 394.13 460.934 396.2 460.934Z" fill="#E6E6E6"/>
<path d="M406.298 452.565C408.368 452.565 410.046 450.888 410.046 448.818C410.046 446.749 408.368 445.071 406.298 445.071C404.229 445.071 402.551 446.749 402.551 448.818C402.551 450.888 404.229 452.565 406.298 452.565Z" fill="#E6E6E6"/>
<path d="M416.398 444.197C418.468 444.197 420.146 442.519 420.146 440.45C420.146 438.38 418.468 436.703 416.398 436.703C414.328 436.703 412.65 438.38 412.65 440.45C412.65 442.519 414.328 444.197 416.398 444.197Z" fill="#E6E6E6"/>
<path d="M356.664 645.272L365.268 645.272L369.361 612.092L356.663 612.092L356.664 645.272Z" fill="#FFB8B8"/>
<path d="M354.471 642.464L371.415 642.463H371.415C372.833 642.463 374.237 642.742 375.548 643.285C376.858 643.827 378.048 644.623 379.051 645.625C380.053 646.628 380.849 647.818 381.391 649.128C381.934 650.437 382.213 651.841 382.213 653.259V653.61L354.471 653.611L354.471 642.464Z" fill="#2F2E41"/>
<path d="M325.786 645.272L334.39 645.272L338.482 612.092L325.784 612.092L325.786 645.272Z" fill="#FFB8B8"/>
<path d="M323.592 642.464L340.536 642.463H340.536C341.954 642.463 343.359 642.742 344.669 643.285C345.979 643.827 347.169 644.623 348.172 645.625C349.175 646.628 349.97 647.818 350.513 649.128C351.055 650.437 351.335 651.841 351.335 653.259V653.61L323.592 653.611L323.592 642.464Z" fill="#2F2E41"/>
<path d="M334.42 635.12H334.418L327.102 635.118C326.283 635.121 325.496 634.804 324.907 634.236C324.318 633.668 323.973 632.892 323.947 632.074L323.717 625.674C321.867 574.495 319.955 521.573 331.8 497.787L331.892 497.6L371.109 496.181L378.982 568.389C379.318 571.469 379.195 574.582 378.617 577.626L368.209 632.459C368.068 633.203 367.665 633.871 367.073 634.342C366.481 634.813 365.739 635.056 364.983 635.026L356.764 634.76C356.334 634.743 355.912 634.638 355.523 634.452C355.135 634.265 354.789 634.002 354.506 633.677C354.223 633.352 354.01 632.973 353.879 632.563C353.748 632.152 353.703 631.72 353.745 631.291L360.201 580.576C360.421 578.387 360.222 576.176 359.615 574.061L351.587 545.999C351.52 545.767 351.376 545.565 351.178 545.426C350.981 545.288 350.741 545.222 350.501 545.239C350.26 545.256 350.032 545.355 349.856 545.519C349.679 545.684 349.565 545.905 349.532 546.144L337.547 632.397C337.44 633.151 337.065 633.841 336.491 634.341C335.916 634.841 335.181 635.117 334.42 635.12Z" fill="#2F2E41"/>
<path d="M339.11 423.989C348.629 423.989 356.346 416.273 356.346 406.755C356.346 397.237 348.629 389.522 339.11 389.522C329.59 389.522 321.873 397.237 321.873 406.755C321.873 416.273 329.59 423.989 339.11 423.989Z" fill="#FFB8B8"/>
<path d="M369.271 501.511H333.604C333.15 501.511 332.702 501.413 332.29 501.225C331.878 501.036 331.511 500.761 331.215 500.419C330.918 500.076 330.699 499.673 330.572 499.238C330.445 498.803 330.413 498.346 330.479 497.897L332.241 485.831L321.893 457.376C320.825 454.439 320.428 451.299 320.732 448.189C321.035 445.078 322.031 442.074 323.647 439.398C325.263 436.723 327.457 434.442 330.069 432.725C332.682 431.008 335.645 429.897 338.743 429.474C343.156 428.858 347.65 429.672 351.568 431.795C355.485 433.918 358.62 437.239 360.513 441.272L362.785 446.107L372.376 497.778C372.461 498.234 372.444 498.702 372.327 499.151C372.21 499.599 371.995 500.016 371.699 500.372C371.403 500.729 371.031 501.015 370.612 501.212C370.192 501.409 369.734 501.511 369.271 501.511H369.271Z" fill="#3AA7DE"/>
<path d="M293.978 531.778C295.052 531.529 296.058 531.047 296.925 530.367C297.792 529.687 298.5 528.825 298.998 527.842C299.496 526.859 299.773 525.779 299.808 524.677C299.843 523.576 299.637 522.48 299.203 521.467L326.995 458.688L311.097 454.685L288.777 517.653C287.123 518.495 285.836 519.914 285.158 521.641C284.481 523.369 284.461 525.284 285.103 527.025C285.744 528.767 287.001 530.212 288.637 531.088C290.273 531.964 292.173 532.209 293.978 531.778H293.978Z" fill="#FFB8B8"/>
<path d="M323.232 469.916L307.77 462.679C307.33 462.474 306.939 462.175 306.625 461.805C306.311 461.435 306.08 461.001 305.948 460.533C305.817 460.066 305.788 459.575 305.863 459.095C305.938 458.616 306.116 458.158 306.384 457.753L315.781 443.563C316.849 441.32 318.762 439.591 321.102 438.756C323.441 437.921 326.017 438.046 328.264 439.106C330.511 440.166 332.246 442.073 333.09 444.409C333.933 446.746 333.816 449.321 332.763 451.572L327.904 467.824C327.765 468.289 327.527 468.719 327.206 469.084C326.886 469.449 326.491 469.741 326.047 469.939C325.604 470.138 325.123 470.239 324.637 470.235C324.152 470.231 323.672 470.122 323.232 469.916H323.232Z" fill="#3AA7DE"/>
<path d="M409.915 370.229C410.251 371.279 410.352 372.389 410.212 373.482C410.072 374.575 409.694 375.624 409.105 376.555C408.515 377.487 407.729 378.277 406.801 378.872C405.873 379.466 404.826 379.85 403.733 379.996L364.034 436.012L352.452 424.409L395.117 372.995C394.994 371.144 395.553 369.312 396.69 367.846C397.828 366.38 399.463 365.382 401.287 365.041C403.111 364.7 404.997 365.04 406.587 365.996C408.177 366.952 409.361 368.458 409.915 370.229Z" fill="#FFB8B8"/>
<path d="M373.213 429.437C373.27 429.92 373.222 430.408 373.072 430.871C372.923 431.333 372.675 431.757 372.347 432.115L360.873 444.611C359.48 446.668 357.327 448.09 354.887 448.563C352.447 449.036 349.919 448.523 347.857 447.135C345.795 445.748 344.368 443.599 343.888 441.161C343.408 438.723 343.914 436.194 345.297 434.128L352.674 418.792C352.885 418.354 353.187 417.967 353.561 417.657C353.935 417.347 354.371 417.12 354.84 416.994C355.309 416.867 355.8 416.843 356.279 416.924C356.758 417.004 357.214 417.186 357.616 417.459L371.752 427.032C372.154 427.304 372.493 427.66 372.745 428.075C372.997 428.49 373.157 428.955 373.213 429.437Z" fill="#3AA7DE"/>
<path d="M361.757 399.542C361.746 397.982 361.53 396.43 361.113 394.928C358.336 384.668 348.084 378.51 337.796 380.055C335.795 379.481 333.723 379.191 331.642 379.193C326.347 379.194 321.226 381.087 317.205 384.531C313.184 387.975 310.527 392.743 309.714 397.975L301.403 451.464H346.318L353.57 404.786C353.839 403.051 353.903 401.291 353.759 399.542H361.757Z" fill="#2F2E41"/>
<path d="M417.582 654H269.504C269.317 654 269.139 653.926 269.007 653.794C268.876 653.663 268.802 653.484 268.802 653.298C268.802 653.112 268.876 652.934 269.007 652.802C269.139 652.671 269.317 652.597 269.504 652.597H417.582C417.768 652.597 417.946 652.671 418.078 652.802C418.209 652.934 418.283 653.112 418.283 653.298C418.283 653.484 418.209 653.663 418.078 653.794C417.946 653.926 417.768 654 417.582 654Z" fill="#CCCCCC"/>
<path d="M566.761 309.496C567.788 309.397 568.824 309.525 569.797 309.87C570.769 310.215 571.654 310.768 572.389 311.492C573.124 312.216 573.691 313.092 574.051 314.059C574.411 315.025 574.554 316.059 574.471 317.087L597.425 327.188L586.476 334.254L566.357 323.579C564.639 323.325 563.074 322.45 561.958 321.119C560.842 319.788 560.253 318.094 560.303 316.358C560.353 314.622 561.038 312.965 562.228 311.7C563.418 310.436 565.031 309.651 566.761 309.496V309.496Z" fill="#A0616A"/>
<path d="M659.35 296.896C668.87 296.896 676.587 289.181 676.587 279.663C676.587 270.145 668.87 262.43 659.35 262.43C649.83 262.43 642.113 270.145 642.113 279.663C642.113 289.181 649.83 296.896 659.35 296.896Z" fill="#A0616A"/>
<path d="M628.154 525.394L619.55 525.393L615.457 492.213L628.155 492.214L628.154 525.394Z" fill="#A0616A"/>
<path d="M630.349 533.732L602.606 533.731V533.38C602.606 531.963 602.886 530.559 603.428 529.249C603.971 527.939 604.766 526.749 605.769 525.746C606.772 524.744 607.962 523.949 609.272 523.406C610.582 522.864 611.987 522.584 613.405 522.584H613.405L630.349 522.585L630.349 533.732Z" fill="#2F2E41"/>
<path d="M663.946 525.394L655.342 525.393L651.249 492.213L663.947 492.214L663.946 525.394Z" fill="#A0616A"/>
<path d="M666.14 533.732L638.397 533.731V533.38C638.397 531.963 638.677 530.559 639.219 529.249C639.762 527.939 640.557 526.749 641.56 525.746C642.563 524.744 643.753 523.949 645.063 523.406C646.373 522.864 647.778 522.584 649.196 522.584H649.196L666.14 522.585L666.14 533.732Z" fill="#2F2E41"/>
<path d="M663.538 518.327C663.409 518.327 663.281 518.319 663.153 518.303L650.559 516.753C649.821 516.663 649.139 516.316 648.632 515.772C648.126 515.228 647.828 514.523 647.791 513.781L644.121 431.151C644.108 430.917 644.018 430.693 643.863 430.516C643.709 430.339 643.5 430.219 643.27 430.174C643.039 430.129 642.8 430.163 642.591 430.27C642.382 430.376 642.214 430.55 642.115 430.763L632.687 462.186L630.746 512.661C630.729 513.096 630.622 513.523 630.433 513.915C630.243 514.307 629.974 514.656 629.643 514.939C629.312 515.222 628.926 515.433 628.509 515.56C628.092 515.687 627.653 515.726 627.221 515.674L616.315 514.391C615.535 514.302 614.816 513.924 614.301 513.333C613.785 512.741 613.509 511.978 613.526 511.194L614.452 463.682L621.841 389.101L622.171 389.113L667.101 390.845L666.697 515.18C666.694 516.015 666.36 516.816 665.768 517.406C665.175 517.995 664.374 518.327 663.538 518.327H663.538Z" fill="#2F2E41"/>
<path d="M665.399 397.66C665.371 397.66 665.344 397.66 665.316 397.659L620.066 396.474C619.622 396.462 619.186 396.357 618.786 396.166C618.385 395.975 618.03 395.701 617.743 395.363C617.455 395.025 617.242 394.631 617.117 394.205C616.993 393.779 616.959 393.332 617.019 392.892L625.714 328.907C626.257 324.587 627.706 320.429 629.964 316.707C632.223 312.984 635.242 309.779 638.824 307.302C641.974 305.133 645.553 303.664 649.318 302.993C653.084 302.321 656.949 302.464 660.655 303.41C676.45 307.411 685.925 324.368 681.777 341.209L668.466 395.258C668.294 395.942 667.899 396.549 667.344 396.984C666.789 397.419 666.104 397.657 665.399 397.66Z" fill="#FFCA1C"/>
<path d="M606.033 346.85C603.051 346.854 600.133 345.987 597.637 344.356L571.248 327.046C570.862 326.793 570.536 326.458 570.293 326.065C570.05 325.672 569.897 325.23 569.843 324.772C569.79 324.313 569.838 323.848 569.984 323.41C570.13 322.971 570.37 322.571 570.687 322.235L574.663 318.039C575.096 317.579 575.658 317.26 576.276 317.124C576.893 316.988 577.537 317.041 578.124 317.276L607.6 329.012L634.906 309.516C636.183 308.604 637.635 307.967 639.171 307.646C640.706 307.324 642.292 307.325 643.827 307.648C645.363 307.971 646.814 308.609 648.09 309.521C649.366 310.434 650.439 311.601 651.24 312.95C652.042 314.299 652.555 315.799 652.746 317.356C652.938 318.913 652.804 320.492 652.354 321.995C651.903 323.497 651.146 324.89 650.129 326.085C649.113 327.28 647.859 328.251 646.448 328.936L612.7 345.325C610.622 346.331 608.342 346.853 606.033 346.85Z" fill="#FFCA1C"/>
<path d="M665.323 296.144C668.264 296.838 671.811 297.371 673.913 295.2C674.285 294.79 674.618 294.346 674.907 293.874L677.654 289.68C679.759 286.467 681.901 283.17 682.792 279.434C683.304 277.288 683.384 275.06 683.028 272.882C682.671 270.705 681.886 268.619 680.717 266.747C679.547 264.875 678.018 263.254 676.217 261.979C674.416 260.703 672.379 259.797 670.225 259.315C666.122 258.397 662.108 256.817 657.914 257.105C653.72 257.393 648.801 257.299 645.282 255C645.501 256.025 646.687 260.553 646.687 260.553C646.687 260.553 641.395 265.407 640.333 266.618C641.722 266.002 643.235 265.713 644.753 265.772C646.272 265.832 647.756 266.239 649.093 266.962C650.43 267.685 651.583 268.705 652.464 269.943C653.345 271.182 653.93 272.605 654.174 274.105C654.475 275.948 654.298 277.991 655.393 279.503C656.435 280.941 658.302 281.445 659.872 282.276C662.135 283.565 663.862 285.619 664.744 288.07C665.625 290.52 665.601 293.204 664.677 295.639L665.323 296.144Z" fill="#2F2E41"/>
<path d="M644.627 403.832H501.75C499.954 403.83 498.232 403.116 496.962 401.846C495.692 400.576 494.978 398.855 494.976 397.059V324.403C494.978 322.607 495.692 320.885 496.962 319.615C498.232 318.346 499.954 317.631 501.75 317.629H644.627C646.423 317.631 648.145 318.346 649.415 319.615C650.685 320.885 651.4 322.607 651.402 324.403V397.059C651.4 398.855 650.685 400.576 649.415 401.846C648.145 403.116 646.423 403.83 644.627 403.832Z" fill="#FFCA1C"/>
<path d="M642.985 398.906H503.392C502.467 398.905 501.58 398.537 500.926 397.883C500.271 397.229 499.903 396.342 499.902 395.417V326.044C499.903 325.119 500.271 324.233 500.926 323.578C501.58 322.924 502.467 322.556 503.392 322.555H642.985C643.91 322.556 644.797 322.924 645.452 323.578C646.106 324.233 646.474 325.119 646.475 326.044V395.417C646.474 396.342 646.106 397.229 645.452 397.883C644.797 398.537 643.91 398.905 642.985 398.906Z" fill="white"/>
<path d="M634.901 416.421L619.201 400.725L639.328 401.234V414.588C639.334 415.102 639.184 415.605 638.898 416.033C638.613 416.46 638.204 416.792 637.727 416.984C637.408 417.117 637.065 417.187 636.718 417.188C636.38 417.186 636.045 417.118 635.732 416.987C635.42 416.855 635.138 416.663 634.901 416.421Z" fill="#FFCA1C"/>
<path d="M625.989 357.62H555.371C554.5 357.62 553.665 357.274 553.049 356.658C552.433 356.042 552.087 355.207 552.087 354.336C552.087 353.465 552.433 352.63 553.049 352.014C553.665 351.398 554.5 351.052 555.371 351.052H625.989C626.86 351.052 627.696 351.398 628.311 352.014C628.927 352.63 629.273 353.465 629.273 354.336C629.273 355.207 628.927 356.042 628.311 356.658C627.696 357.274 626.86 357.62 625.989 357.62Z" fill="#CCCCCC"/>
<path d="M602.997 343.663H555.371C554.94 343.664 554.512 343.579 554.113 343.415C553.714 343.25 553.351 343.008 553.046 342.703C552.74 342.398 552.498 342.036 552.332 341.637C552.167 341.238 552.082 340.811 552.082 340.379C552.082 339.948 552.167 339.52 552.332 339.121C552.498 338.723 552.74 338.36 553.046 338.055C553.351 337.75 553.714 337.509 554.113 337.344C554.512 337.179 554.94 337.095 555.371 337.095H602.997C603.868 337.095 604.704 337.441 605.32 338.057C605.936 338.673 606.282 339.508 606.282 340.379C606.282 341.25 605.936 342.085 605.32 342.701C604.704 343.317 603.868 343.663 602.997 343.663Z" fill="#CCCCCC"/>
<path d="M526.139 357.62C531.808 357.62 536.403 353.025 536.403 347.358C536.403 341.69 531.808 337.095 526.139 337.095C520.47 337.095 515.875 341.69 515.875 347.358C515.875 353.025 520.47 357.62 526.139 357.62Z" fill="#3AA7DE"/>
<path d="M604.227 384.366C606.041 384.366 607.511 382.896 607.511 381.082C607.511 379.269 606.041 377.798 604.227 377.798C602.413 377.798 600.942 379.269 600.942 381.082C600.942 382.896 602.413 384.366 604.227 384.366Z" fill="#E6E6E6"/>
<path d="M615.722 384.366C617.536 384.366 619.007 382.896 619.007 381.082C619.007 379.269 617.536 377.798 615.722 377.798C613.908 377.798 612.438 379.269 612.438 381.082C612.438 382.896 613.908 384.366 615.722 384.366Z" fill="#E6E6E6"/>
<path d="M627.218 384.366C629.032 384.366 630.503 382.896 630.503 381.082C630.503 379.269 629.032 377.798 627.218 377.798C625.404 377.798 623.934 379.269 623.934 381.082C623.934 382.896 625.404 384.366 627.218 384.366Z" fill="#E6E6E6"/>
<path d="M642.415 395.192C642.529 394.166 642.866 393.179 643.402 392.298C643.939 391.417 644.662 390.664 645.521 390.093C646.38 389.521 647.354 389.145 648.374 388.991C649.394 388.837 650.436 388.908 651.425 389.2L666.011 368.803L670.688 380.964L656.121 398.469C655.52 400.099 654.343 401.451 652.812 402.271C651.28 403.091 649.501 403.321 647.812 402.917C646.123 402.513 644.64 401.503 643.646 400.079C642.651 398.656 642.213 396.917 642.415 395.192H642.415Z" fill="#A0616A"/>
<path d="M659.123 394.091C658.894 394.11 658.663 394.104 658.435 394.074C657.977 394.013 657.538 393.851 657.149 393.602C656.76 393.352 656.431 393.019 656.185 392.628L653.103 387.739C652.764 387.205 652.594 386.582 652.615 385.95C652.636 385.318 652.847 384.707 653.221 384.197L671.89 358.549L659.756 327.272C658.672 324.52 658.713 321.452 659.87 318.73C661.027 316.008 663.207 313.85 665.941 312.72C667.486 312.072 669.155 311.775 670.828 311.849C672.502 311.923 674.138 312.367 675.619 313.149C677.1 313.931 678.39 315.032 679.395 316.372C680.4 317.711 681.096 319.257 681.432 320.898L688.96 357.646C689.484 360.238 689.33 362.921 688.512 365.435C687.694 367.95 686.241 370.21 684.293 371.998L660.987 393.276C660.473 393.747 659.817 394.033 659.123 394.091Z" fill="#FFCA1C"/>
<path d="M698.298 535.42H550.22C550.034 535.42 549.856 535.346 549.724 535.214C549.593 535.083 549.519 534.904 549.519 534.718C549.519 534.532 549.593 534.353 549.724 534.222C549.856 534.09 550.034 534.016 550.22 534.016H698.298C698.484 534.016 698.663 534.09 698.795 534.222C698.926 534.353 699 534.532 699 534.718C699 534.904 698.926 535.083 698.795 535.214C698.663 535.346 698.484 535.42 698.298 535.42Z" fill="#CCCCCC"/>
<path d="M213.092 360.793H70.2148C68.4188 360.791 66.6968 360.077 65.4268 358.807C64.1568 357.538 63.4425 355.816 63.4404 354.02V281.364C63.4424 279.568 64.1568 277.846 65.4268 276.577C66.6968 275.307 68.4188 274.593 70.2148 274.591H213.092C214.888 274.593 216.61 275.307 217.88 276.577C219.15 277.846 219.864 279.568 219.866 281.364V354.02C219.864 355.816 219.15 357.538 217.88 358.807C216.61 360.077 214.888 360.791 213.092 360.793Z" fill="#FFCA1C"/>
<path d="M211.45 355.867H71.857C70.9318 355.866 70.0447 355.499 69.3905 354.844C68.7362 354.19 68.3682 353.303 68.3672 352.378V283.006C68.3682 282.081 68.7362 281.194 69.3905 280.54C70.0447 279.885 70.9318 279.518 71.857 279.516H211.45C212.375 279.518 213.262 279.885 213.916 280.54C214.571 281.194 214.939 282.081 214.94 283.006V352.378C214.939 353.303 214.571 354.19 213.916 354.844C213.262 355.499 212.375 355.866 211.45 355.867Z" fill="white"/>
<path d="M203.365 373.382L187.666 357.686L207.793 358.195V371.549C207.799 372.063 207.649 372.567 207.363 372.994C207.077 373.422 206.669 373.753 206.192 373.945C205.872 374.078 205.53 374.148 205.183 374.149C204.844 374.148 204.509 374.079 204.197 373.948C203.885 373.816 203.603 373.624 203.365 373.382Z" fill="#FFCA1C"/>
<path d="M194.454 314.581H123.836C122.965 314.581 122.13 314.235 121.514 313.619C120.898 313.003 120.552 312.168 120.552 311.297C120.552 310.426 120.898 309.591 121.514 308.975C122.13 308.359 122.965 308.013 123.836 308.013H194.454C195.325 308.013 196.16 308.359 196.776 308.975C197.392 309.591 197.738 310.426 197.738 311.297C197.738 312.168 197.392 313.003 196.776 313.619C196.16 314.235 195.325 314.581 194.454 314.581Z" fill="#CCCCCC"/>
<path d="M171.462 300.624H123.836C122.965 300.624 122.13 300.278 121.514 299.663C120.898 299.047 120.552 298.212 120.552 297.341C120.552 296.47 120.898 295.634 121.514 295.018C122.13 294.403 122.965 294.057 123.836 294.057H171.462C172.333 294.057 173.169 294.403 173.785 295.018C174.401 295.634 174.747 296.47 174.747 297.341C174.747 298.212 174.401 299.047 173.785 299.663C173.169 300.278 172.333 300.624 171.462 300.624Z" fill="#CCCCCC"/>
<path d="M94.603 314.581C100.272 314.581 104.867 309.987 104.867 304.319C104.867 298.651 100.272 294.057 94.603 294.057C88.9343 294.057 84.3389 298.651 84.3389 304.319C84.3389 309.987 88.9343 314.581 94.603 314.581Z" fill="#3AA7DE"/>
<path d="M172.691 341.327C174.505 341.327 175.975 339.857 175.975 338.044C175.975 336.23 174.505 334.76 172.691 334.76C170.877 334.76 169.406 336.23 169.406 338.044C169.406 339.857 170.877 341.327 172.691 341.327Z" fill="#E6E6E6"/>
<path d="M184.187 341.327C186.001 341.327 187.471 339.857 187.471 338.044C187.471 336.23 186.001 334.76 184.187 334.76C182.373 334.76 180.902 336.23 180.902 338.044C180.902 339.857 182.373 341.327 184.187 341.327Z" fill="#E6E6E6"/>
<path d="M195.683 341.327C197.497 341.327 198.968 339.857 198.968 338.044C198.968 336.23 197.497 334.76 195.683 334.76C193.869 334.76 192.398 336.23 192.398 338.044C192.398 339.857 193.869 341.327 195.683 341.327Z" fill="#E6E6E6"/>
<path d="M207.167 267.61C206.196 267.959 205.314 268.517 204.582 269.244C203.85 269.971 203.287 270.85 202.932 271.819C202.576 272.787 202.438 273.822 202.526 274.849C202.613 275.877 202.926 276.873 203.44 277.767L187.004 296.705L199.923 298.416L213.55 280.17C214.995 279.206 216.037 277.746 216.477 276.066C216.917 274.386 216.725 272.603 215.938 271.055C215.152 269.507 213.824 268.301 212.207 267.666C210.591 267.031 208.797 267.011 207.167 267.61Z" fill="#FFB8B8"/>
<path d="M97.4229 275.192C97.7735 276.162 97.9071 277.197 97.8142 278.224C97.7213 279.252 97.4043 280.246 96.8855 281.138C96.3666 282.029 95.6586 282.796 94.8112 283.384C93.9638 283.973 92.9977 284.368 91.9809 284.543L87.8908 309.281L78.3271 300.43L83.6774 278.295C83.4971 276.568 83.9568 274.835 84.9693 273.424C85.9819 272.012 87.477 271.022 89.1713 270.639C90.8656 270.257 92.6415 270.509 94.1623 271.348C95.6831 272.187 96.8433 273.554 97.4229 275.192V275.192Z" fill="#FFB8B8"/>
<path d="M123.109 525.394L131.713 525.393L135.806 492.213L123.107 492.214L123.109 525.394Z" fill="#FFB8B8"/>
<path d="M120.915 522.585L137.859 522.584H137.86C139.278 522.584 140.682 522.864 141.992 523.406C143.302 523.949 144.492 524.744 145.495 525.746C146.498 526.749 147.293 527.939 147.836 529.249C148.378 530.559 148.658 531.963 148.658 533.38V533.731L120.916 533.732L120.915 522.585Z" fill="#2F2E41"/>
<path d="M78.8959 525.394L87.4999 525.393L91.5927 492.213L78.8945 492.214L78.8959 525.394Z" fill="#FFB8B8"/>
<path d="M76.7021 522.585L93.6461 522.584H93.6468C95.0648 522.584 96.4689 522.864 97.779 523.406C99.0891 523.949 100.279 524.744 101.282 525.746C102.285 526.749 103.08 527.939 103.623 529.249C104.166 530.559 104.445 531.963 104.445 533.38V533.731L76.7027 533.732L76.7021 522.585Z" fill="#2F2E41"/>
<path d="M121.313 298.859C130.832 298.859 138.55 291.144 138.55 281.626C138.55 272.108 130.832 264.392 121.313 264.392C111.793 264.392 104.076 272.108 104.076 281.626C104.076 291.144 111.793 298.859 121.313 298.859Z" fill="#FFB8B8"/>
<path d="M119.247 514.371L117.822 423.572C117.818 423.316 117.721 423.069 117.548 422.879C117.376 422.689 117.139 422.569 116.884 422.541C116.629 422.513 116.372 422.579 116.163 422.727C115.953 422.875 115.804 423.095 115.745 423.345L92.382 512.158C92.2062 512.869 91.7917 513.497 91.2078 513.939C90.6239 514.381 89.906 514.609 89.1741 514.585L76.3384 514.036C75.902 514.017 75.4743 513.908 75.0822 513.716C74.6901 513.523 74.3422 513.252 74.0605 512.918C73.7787 512.584 73.5693 512.196 73.4453 511.777C73.3213 511.359 73.2856 510.919 73.3403 510.485L93.1651 396.355L93.2057 396.033L148.424 398.645L148.784 398.661L136.943 514.561C136.881 515.355 136.523 516.096 135.939 516.637C135.356 517.179 134.59 517.481 133.794 517.484H122.405C121.576 517.481 120.782 517.153 120.191 516.571C119.601 515.99 119.262 515.2 119.247 514.371Z" fill="#2F2E41"/>
<path d="M162.86 406.336L82.7307 399.762C82.2471 399.722 81.7791 399.572 81.3631 399.322C80.947 399.072 80.5942 398.73 80.3319 398.322C80.0697 397.913 79.905 397.45 79.8508 396.968C79.7966 396.486 79.8543 395.998 80.0193 395.542L92.6381 360.661L93.3642 319.261C93.3905 317.758 93.7151 316.275 94.319 314.899C94.9229 313.522 95.7942 312.28 96.8822 311.242C97.9703 310.205 99.2536 309.394 100.658 308.857C102.062 308.319 103.558 308.066 105.061 308.111L110.39 303.282H129.913L131.613 305.51L145.198 307.597C147.618 307.979 149.85 309.129 151.566 310.877C153.283 312.624 154.391 314.877 154.728 317.303L166.248 402.769C166.308 403.214 166.272 403.668 166.142 404.099C166.013 404.53 165.792 404.928 165.497 405.267C165.201 405.605 164.836 405.877 164.426 406.064C164.017 406.25 163.572 406.347 163.122 406.347C163.035 406.347 162.947 406.344 162.86 406.336Z" fill="#2F2E41"/>
<path d="M147.248 311.61L181.414 301.602L196.876 281.249C197.302 280.688 197.903 280.286 198.583 280.106C199.264 279.926 199.985 279.978 200.632 280.255L210.286 284.381C210.698 284.557 211.068 284.818 211.37 285.147C211.673 285.477 211.903 285.867 212.043 286.292C212.184 286.717 212.233 287.167 212.186 287.612C212.14 288.057 211.999 288.487 211.774 288.874L200.218 308.7C198.337 311.943 195.473 314.504 192.04 316.013L151.854 333.774L147.248 311.61Z" fill="#2F2E41"/>
<path d="M81.6999 326.582C79.6581 325.111 78.0299 323.139 76.9723 320.856C75.9147 318.573 75.4633 316.056 75.6618 313.548L77.1612 293.686C77.223 292.893 77.5814 292.152 78.165 291.611C78.7486 291.07 79.5146 290.768 80.3105 290.766H80.3385L91.6596 290.867C92.1234 290.871 92.5806 290.977 92.9987 291.178C93.4167 291.379 93.7854 291.67 94.0786 292.029C94.3717 292.388 94.5821 292.808 94.6948 293.258C94.8075 293.707 94.8198 294.176 94.7307 294.632L92.6301 305.347L107.62 311.68L94.9973 336.233L81.6999 326.582Z" fill="#2F2E41"/>
<path d="M131.341 260.961C131.341 260.961 113.315 251.257 103.49 262.71C93.6652 274.163 107.234 292.073 107.234 292.073L126.567 294.511C126.567 294.511 127.268 281.371 131.871 281.626C136.474 281.881 150.77 265.301 131.341 260.961Z" fill="#2F2E41"/>
<path d="M181.78 534.718H33.7018C33.5157 534.718 33.3372 534.644 33.2055 534.512C33.0739 534.381 33 534.202 33 534.016C33 533.83 33.0739 533.652 33.2055 533.52C33.3372 533.389 33.5157 533.315 33.7018 533.315H181.78C181.966 533.315 182.144 533.389 182.276 533.52C182.408 533.652 182.482 533.83 182.482 534.016C182.482 534.202 182.408 534.381 182.276 534.512C182.144 534.644 181.966 534.718 181.78 534.718Z" fill="#CCCCCC"/>
</g>
<defs>
<clipPath id="clip0">
<rect width="666" height="399" fill="white" transform="translate(33 255)"/>
</clipPath>
</defs>
</svg>
