<svg width="755" height="902" viewBox="0 0 755 902" fill="none" xmlns="http://www.w3.org/2000/svg">
<path fill-rule="evenodd" clip-rule="evenodd" d="M383.888 220.429C505.968 284.861 643.552 358.466 680.59 463.579C716.415 565.247 623.82 629.672 549.618 690.765C484.356 744.499 408.003 795.234 297.676 778.848C187.574 762.496 92.9978 686.562 9.72845 610.584C-83.1808 525.81 -182.096 434.192 -185.134 338.316C-188.623 228.247 -129.416 126.465 -6.42394 100.985C112.66 76.3134 255.346 152.587 383.888 220.429Z" fill="#3AA7DE" fill-opacity="0.13"/>
<g clip-path="url(#clip0)">
<path d="M682.184 616.779H48.7666V618.143H682.184V616.779Z" fill="#3F3D56"/>
<path d="M98.5867 369.275L98.0557 370.532L681.456 617.347L681.987 616.091L98.5867 369.275Z" fill="#3F3D56"/>
<path d="M682.184 369.161H48.7666V370.526H682.184V369.161Z" fill="#3F3D56"/>
<path d="M596.275 398.835C596.362 427.7 590.763 456.299 579.797 482.999C568.832 509.698 552.715 533.973 532.367 554.438C530.124 556.696 527.831 558.902 525.488 561.055C522.665 563.661 519.769 566.187 516.801 568.633C516.235 569.104 515.669 569.568 515.096 570.025C503.371 579.532 490.673 587.77 477.214 594.603C476.416 595.005 475.619 595.408 474.814 595.803C473.539 596.431 472.25 597.045 470.962 597.645C423.258 619.853 369.009 623.536 318.744 607.979C230.74 580.653 166.724 497.356 166.724 398.835C166.724 278.089 262.882 180.208 381.499 180.208C500.117 180.208 596.275 278.089 596.275 398.835Z" fill="#3AA7DE"/>
<path d="M429.319 352.972L429.49 352.965L428.817 351.488C428.062 349.395 427.138 347.366 426.056 345.423L406.327 302.086C405.698 300.703 404.678 299.534 403.394 298.722C402.109 297.91 400.616 297.491 399.097 297.517L374.113 297.933C372.497 297.96 370.93 298.488 369.627 299.444C368.324 300.401 367.351 301.738 366.84 303.272L351.133 350.468C350.616 351.789 350.168 353.137 349.79 354.505L349.257 356.107L349.382 356.102C347.926 362.326 347.927 368.803 349.385 375.026C350.842 381.25 353.717 387.053 357.784 391.982C361.851 396.912 367.001 400.835 372.833 403.446C378.665 406.057 385.02 407.286 391.405 407.036C397.789 406.786 404.029 405.064 409.639 402.005C415.249 398.945 420.077 394.631 423.746 389.399C427.416 384.166 429.828 378.156 430.795 371.838C431.761 365.519 431.256 359.063 429.319 352.972H429.319Z" fill="#EAB328"/>
<path d="M382.756 308.531L374.894 351.529L375.781 351.692L383.643 308.694L382.756 308.531Z" fill="#3AA7DE"/>
<path d="M392.204 308.373L391.322 308.565L400.603 351.279L401.485 351.087L392.204 308.373Z" fill="#3AA7DE"/>
<path d="M371.389 276.77L403.404 276.236C403.643 276.232 403.874 276.323 404.046 276.49C404.218 276.656 404.317 276.884 404.321 277.123C404.325 277.363 404.234 277.594 404.067 277.766C403.901 277.938 403.673 278.037 403.434 278.041L371.419 278.574C371.301 278.576 371.183 278.555 371.073 278.511C370.963 278.468 370.862 278.403 370.777 278.321C370.692 278.238 370.624 278.14 370.576 278.031C370.529 277.922 370.504 277.805 370.502 277.687C370.5 277.568 370.522 277.451 370.565 277.341C370.608 277.23 370.673 277.13 370.756 277.045C370.838 276.959 370.936 276.891 371.045 276.844C371.154 276.797 371.27 276.772 371.389 276.77Z" fill="#3F3D56"/>
<path d="M371.727 283.533L403.742 282.999C403.981 282.995 404.212 283.086 404.384 283.253C404.556 283.419 404.655 283.647 404.659 283.886C404.663 284.126 404.571 284.357 404.405 284.529C404.239 284.701 404.011 284.8 403.772 284.804L371.757 285.337C371.518 285.341 371.287 285.25 371.115 285.084C370.943 284.917 370.844 284.689 370.84 284.45C370.836 284.211 370.927 283.98 371.093 283.808C371.26 283.636 371.488 283.537 371.727 283.533Z" fill="#3F3D56"/>
<path d="M372.065 290.296L404.08 289.762C404.319 289.758 404.55 289.85 404.722 290.016C404.894 290.182 404.993 290.41 404.997 290.65C405.001 290.889 404.909 291.12 404.743 291.292C404.577 291.464 404.349 291.563 404.11 291.567L372.095 292.1C371.856 292.104 371.625 292.013 371.453 291.847C371.281 291.68 371.182 291.452 371.178 291.213C371.174 290.974 371.265 290.743 371.431 290.571C371.598 290.399 371.825 290.3 372.065 290.296Z" fill="#3F3D56"/>
<path d="M387.289 270.067C380.939 270.173 375.85 273.8 375.923 278.168L398.919 277.784C398.847 273.417 393.64 269.961 387.289 270.067Z" fill="#3F3D56"/>
<path d="M390.828 357.88C392.083 357.964 393.272 358.473 394.2 359.321C394.438 359.518 394.672 359.725 394.906 359.932C395.648 360.707 396.557 361.302 397.563 361.672C399.767 362.273 401.942 360.53 403.778 358.745L404.407 359.392C402.389 361.355 399.969 363.263 397.326 362.542C396.184 362.14 395.152 361.478 394.309 360.609C394.082 360.407 393.855 360.207 393.625 360.016C392.871 359.39 391.416 358.417 390.121 358.922C389.585 359.184 389.107 359.552 388.717 360.005C388.416 360.323 388.09 360.617 387.743 360.883C387.032 361.388 386.188 361.671 385.317 361.697C384.446 361.723 383.587 361.491 382.848 361.029C382.582 360.852 382.326 360.66 382.082 360.454C381.68 360.056 381.181 359.772 380.634 359.63C379.867 359.522 379.171 360.07 378.432 360.648C377.735 361.327 376.842 361.771 375.88 361.917C375.848 361.919 375.815 361.92 375.782 361.92C373.985 361.95 372.845 360.152 372.14 358.784L372.941 358.371C373.9 360.23 374.823 361.077 375.833 361.016C376.605 360.867 377.317 360.492 377.876 359.939C378.729 359.269 379.613 358.576 380.758 358.736C381.471 358.891 382.126 359.244 382.649 359.753C382.868 359.937 383.097 360.11 383.335 360.27C383.923 360.629 384.602 360.81 385.29 360.789C385.979 360.769 386.646 360.548 387.211 360.154C387.52 359.915 387.811 359.652 388.079 359.368C388.554 358.823 389.138 358.384 389.793 358.081C390.124 357.953 390.474 357.884 390.828 357.88Z" fill="#3AA7DE"/>
<path d="M388.307 180H387.369V270.031H388.307V180Z" fill="#3F3D56"/>
<path d="M671.204 335.986C665.489 357.122 645.913 370.213 645.913 370.213C645.913 370.213 635.603 349.034 641.319 327.897C647.034 306.761 666.61 293.67 666.61 293.67C666.61 293.67 676.919 314.849 671.204 335.986Z" fill="#3AA7DE"/>
<path d="M619.212 335.986C624.927 357.122 644.503 370.213 644.503 370.213C644.503 370.213 654.813 349.034 649.098 327.897C643.383 306.761 623.807 293.67 623.807 293.67C623.807 293.67 613.497 314.849 619.212 335.986Z" fill="#3AA7DE"/>
<path d="M627.611 331.443C643.293 346.717 645.209 370.195 645.209 370.195C645.209 370.195 621.698 368.911 606.015 353.638C590.332 338.364 588.417 314.885 588.417 314.885C588.417 314.885 611.928 316.17 627.611 331.443Z" fill="#3F3D56"/>
<path d="M662.806 331.443C647.124 346.717 645.208 370.195 645.208 370.195C645.208 370.195 668.719 368.911 684.402 353.638C700.084 338.364 702 314.885 702 314.885C702 314.885 678.489 316.17 662.806 331.443Z" fill="#3F3D56"/>
<path d="M112.788 582.921C107.073 604.058 87.4971 617.148 87.4971 617.148C87.4971 617.148 77.1875 595.969 82.9027 574.833C88.6179 553.696 108.194 540.606 108.194 540.606C108.194 540.606 118.503 561.785 112.788 582.921Z" fill="#3AA7DE"/>
<path d="M60.7952 582.921C66.5104 604.058 86.0863 617.148 86.0863 617.148C86.0863 617.148 96.3959 595.969 90.6807 574.833C84.9655 553.696 65.3897 540.606 65.3897 540.606C65.3897 540.606 55.08 561.785 60.7952 582.921Z" fill="#3AA7DE"/>
<path d="M69.1936 578.379C84.8762 593.652 86.7917 617.131 86.7917 617.131C86.7917 617.131 63.2807 615.846 47.5981 600.573C31.9155 585.3 30 561.821 30 561.821C30 561.821 53.511 563.105 69.1936 578.379Z" fill="#3F3D56"/>
<path d="M104.39 578.379C88.7075 593.652 86.792 617.131 86.792 617.131C86.792 617.131 110.303 615.846 125.986 600.573C141.668 585.3 143.584 561.821 143.584 561.821C143.584 561.821 120.073 563.105 104.39 578.379Z" fill="#3F3D56"/>
<path d="M487.058 387.66C494.301 387.66 500.172 381.786 500.172 374.539C500.172 367.293 494.301 361.419 487.058 361.419C479.815 361.419 473.943 367.293 473.943 374.539C473.943 381.786 479.815 387.66 487.058 387.66Z" fill="#2F2E41"/>
<path d="M473.006 368.916C473.006 365.68 474.202 362.558 476.364 360.151C478.525 357.743 481.499 356.22 484.715 355.873C482.884 355.673 481.031 355.861 479.277 356.425C477.523 356.99 475.908 357.917 474.536 359.148C473.164 360.378 472.067 361.884 471.316 363.567C470.565 365.25 470.177 367.073 470.177 368.916C470.177 370.759 470.565 372.582 471.316 374.265C472.067 375.948 473.164 377.454 474.536 378.685C475.908 379.915 477.523 380.843 479.277 381.407C481.031 381.971 482.884 382.159 484.715 381.959C481.499 381.613 478.525 380.089 476.364 377.681C474.202 375.274 473.006 372.152 473.006 368.916Z" fill="#2F2E41"/>
<path d="M473.943 374.539C473.943 374.539 471.906 383.911 484.634 387.66L473.943 374.539Z" fill="#3AA7DE"/>
<path d="M492.481 463.66C516.797 463.66 536.509 443.94 536.509 419.613C536.509 395.286 516.797 375.565 492.481 375.565C468.166 375.565 448.454 395.286 448.454 419.613C448.454 443.94 468.166 463.66 492.481 463.66Z" fill="#2F2E41"/>
<path d="M516.8 568.633C516.234 569.104 515.668 569.568 515.096 570.025C503.37 579.532 490.672 587.77 477.213 594.603C476.416 595.005 475.618 595.408 474.813 595.803C473.538 596.431 472.25 597.045 470.961 597.645L448.393 590.121L448.652 584.712V584.691L449.634 564.063L449.968 557.01L516.8 568.633Z" fill="#A0616A"/>
<path d="M474.814 595.803C473.539 596.431 472.25 597.045 470.962 597.645C462.146 601.768 453.053 605.272 443.75 608.129C443.703 607.993 443.675 607.851 443.668 607.706L448.393 584.602L448.652 584.711L474.814 595.803Z" fill="#2F2E41"/>
<path d="M481.491 466.345C497.594 466.345 510.647 453.286 510.647 437.176C510.647 421.066 497.594 408.006 481.491 408.006C465.389 408.006 452.335 421.066 452.335 437.176C452.335 453.286 465.389 466.345 481.491 466.345Z" fill="#A0616A"/>
<path d="M505.131 438.752C505.131 438.752 509.859 462.403 518.527 467.922L470.459 524.685L452.335 507.34L465.731 483.689C465.731 483.689 480.703 475.017 475.975 463.192L505.131 438.752Z" fill="#A0616A"/>
<path d="M562.176 517.084C553.633 530.587 543.636 543.113 532.367 554.438C531.883 543.865 530.833 535.147 528.774 532.569C528.768 532.568 528.763 532.566 528.76 532.562L503.553 524.683C503.553 524.683 509.069 472.649 522.467 470.289C522.467 470.289 524.41 470.685 527.43 471.599C537.167 474.532 558.072 482.799 561.079 500.242C561.934 505.813 562.301 511.449 562.176 517.084Z" fill="#A0616A"/>
<path d="M465.731 483.689C465.731 483.689 442.091 482.901 427.119 501.822C412.147 520.743 375.898 534.933 375.898 534.933L285.278 570.41C285.278 570.41 268.73 541.24 258.486 551.489C248.242 561.738 277.398 587.754 290.794 584.601C304.19 581.447 385.354 557.008 385.354 557.008L449.971 527.838L465.731 483.689Z" fill="#A0616A"/>
<path d="M528.774 532.569L525.487 561.055C522.664 563.661 519.769 566.187 516.801 568.633C516.235 569.104 515.669 569.568 515.096 570.025C492.344 563.047 456.691 563.824 449.634 564.063C448.829 564.083 448.393 564.104 448.393 564.104L447.609 547.548C440.047 545.031 437.566 539.526 437.497 533.469C437.381 522.486 445.243 509.703 445.243 509.703C446.654 508.291 457.202 488.284 459.384 484.136C459.636 483.652 459.779 483.386 459.779 483.386L469.236 481.026C469.236 481.026 469.209 481.101 469.155 481.237C468.309 483.604 460.959 505.017 473.614 505.76C486.064 506.497 513.146 471.517 516.876 466.612C517.155 466.244 517.305 466.046 517.305 466.046L527.553 471.565C527.512 471.578 527.471 471.585 527.43 471.599C521.171 473.338 515.376 488.42 515.376 488.42C499.032 517.234 528.044 532.2 528.76 532.562C528.763 532.566 528.768 532.568 528.774 532.569Z" fill="#D0CDE1"/>
<path d="M483.075 402.937C467.555 402.937 454.973 410.279 454.973 419.337C454.973 423.39 457.502 427.094 461.676 429.956L467.086 426.034L465.615 432.178C466.226 432.461 466.849 432.735 467.499 432.988L475.581 423.555V435.144C478.059 435.541 480.565 435.74 483.075 435.738C498.596 435.738 511.178 428.395 511.178 419.337C511.178 410.279 498.596 402.937 483.075 402.937Z" fill="#2F2E41"/>
<path d="M540.642 408.157C547.885 408.157 553.756 402.283 553.756 395.037C553.756 387.791 547.885 381.916 540.642 381.916C533.399 381.916 527.527 387.791 527.527 395.037C527.527 402.283 533.399 408.157 540.642 408.157Z" fill="#2F2E41"/>
<path d="M526.59 389.414C526.59 386.178 527.786 383.056 529.948 380.648C532.109 378.241 535.083 376.717 538.299 376.371C537.833 376.32 537.364 376.294 536.894 376.293C535.111 376.291 533.346 376.652 531.707 377.355C530.069 378.058 528.59 379.088 527.363 380.381C526.135 381.675 525.185 383.206 524.568 384.88C523.952 386.554 523.684 388.336 523.78 390.118C523.875 391.899 524.333 393.642 525.125 395.24C525.917 396.839 527.026 398.259 528.385 399.414C529.744 400.569 531.324 401.434 533.029 401.957C534.733 402.48 536.527 402.65 538.299 402.457C535.083 402.11 532.109 400.587 529.948 398.179C527.786 395.772 526.59 392.65 526.59 389.414Z" fill="#2F2E41"/>
<path d="M527.527 395.037C527.527 395.037 525.49 404.409 538.218 408.157L527.527 395.037Z" fill="#3AA7DE"/>
<path d="M511.829 439.935C513.086 439.935 514.106 437.641 514.106 434.811C514.106 431.98 513.086 429.686 511.829 429.686C510.572 429.686 509.553 431.98 509.553 434.811C509.553 437.641 510.572 439.935 511.829 439.935Z" fill="#A0616A"/>
<path d="M260.581 454.635L226.028 463.01L225.916 463.037L222.16 466.439L221.079 467.417L218.761 466.997L214.658 466.255L217.517 456.601L218.053 438.188L216.088 426.925L226.988 419.417C226.988 419.417 248.252 418.166 260.581 454.635Z" fill="#D0CDE1"/>
<path opacity="0.1" d="M226.028 463.01C225.56 464.01 226.541 463.35 226.005 464.378L221.002 465.987L218.761 466.997L214.658 466.255L217.517 456.601L218.053 438.188L216.088 426.925L226.988 419.417C226.988 419.417 238.686 435.993 226.028 463.01Z" fill="black"/>
<path d="M301.322 428.177C301.322 428.177 255.936 449.272 237.531 452.49C219.126 455.708 220.734 474.121 220.734 474.121L323.837 458.032C323.837 458.032 320.264 441.406 301.322 428.177Z" fill="#D0CDE1"/>
<path d="M213.765 424.601C213.765 424.601 221.627 443.73 212.871 467.506L223.056 472.154L226.988 467.506L227.077 467.06L216.266 466.076C216.266 466.076 225.201 442.121 217.874 425.495C217.874 425.495 216.266 421.92 213.765 424.601Z" fill="#3AA7DE"/>
<path d="M363.685 566.367C323.48 557.428 286.045 575.931 286.045 575.931L285.943 575.84L271.035 562.523L212.782 467.417L226.988 467.506C266.478 443.909 322.05 447.127 322.05 447.127C345.995 474.3 363.685 566.367 363.685 566.367Z" fill="#3F3D56"/>
<path opacity="0.1" d="M285.943 575.84L271.035 562.523L212.782 467.417L226.988 467.507C226.988 467.507 283.607 542.321 285.943 575.84Z" fill="black"/>
<path d="M292.485 501.633C304.656 497.898 312.599 488.596 310.226 480.856C307.853 473.116 296.063 469.869 283.892 473.603C271.721 477.338 263.778 486.641 266.151 494.381C268.524 502.121 280.314 505.368 292.485 501.633Z" fill="#D0CDE1"/>
<path d="M48.9508 382.018C56.1055 382.018 61.9055 376.215 61.9055 369.057C61.9055 361.899 56.1055 356.097 48.9508 356.097C41.7961 356.097 35.9961 361.899 35.9961 369.057C35.9961 376.215 41.7961 382.018 48.9508 382.018Z" fill="#3F3D56"/>
<path d="M681.686 631C688.841 631 694.641 625.197 694.641 618.039C694.641 610.881 688.841 605.079 681.686 605.079C674.531 605.079 668.731 610.881 668.731 618.039C668.731 625.197 674.531 631 681.686 631Z" fill="#3F3D56"/>
<path d="M105.542 380.654C111.19 380.654 115.769 376.073 115.769 370.422C115.769 364.771 111.19 360.19 105.542 360.19C99.8934 360.19 95.3145 364.771 95.3145 370.422C95.3145 376.073 99.8934 380.654 105.542 380.654Z" fill="#3AA7DE"/>
<path d="M681.686 380.654C687.335 380.654 691.914 376.073 691.914 370.422C691.914 364.771 687.335 360.19 681.686 360.19C676.038 360.19 671.459 364.771 671.459 370.422C671.459 376.073 676.038 380.654 681.686 380.654Z" fill="#3AA7DE"/>
<path d="M48.9501 626.907C54.5985 626.907 59.1775 622.326 59.1775 616.675C59.1775 611.024 54.5985 606.443 48.9501 606.443C43.3016 606.443 38.7227 611.024 38.7227 616.675C38.7227 622.326 43.3016 626.907 48.9501 626.907Z" fill="#3AA7DE"/>
</g>
<defs>
<clipPath id="clip0">
<rect width="672" height="451" fill="white" transform="translate(30 180)"/>
</clipPath>
</defs>
</svg>
