<svg width="659" height="752" viewBox="0 0 659 752" fill="none" xmlns="http://www.w3.org/2000/svg">
<path fill-rule="evenodd" clip-rule="evenodd" d="M561.448 174.579C658.101 225.823 766.998 284.419 793.744 372.901C819.613 458.484 742.891 516.189 681.125 570.5C626.799 618.269 563.608 663.815 474.999 653.172C386.572 642.551 312.479 580.673 247.518 518.418C175.038 448.956 97.9129 373.841 98.347 292.208C98.8454 198.49 149.728 109.948 249.826 84.5228C346.743 59.9056 459.68 120.623 561.448 174.579Z" fill="#3AA7DE" fill-opacity="0.13"/>
<g clip-path="url(#clip0)">
<path d="M417.634 102.753L416.498 103.867L494.453 173.186L495.589 172.071L417.634 102.753Z" fill="#E6E6E6"/>
<path d="M495.714 164.555L494.068 164.648L494.565 172.221L486.441 172.13L486.423 173.669L496.317 173.779L495.714 164.555Z" fill="#E6E6E6"/>
<path d="M425.666 102.268L425.648 103.808L417.525 103.717L418.022 111.29L416.375 111.383L415.773 102.158L425.666 102.268Z" fill="#E6E6E6"/>
<path d="M456.044 146.433C461.048 146.433 465.105 142.643 465.105 137.969C465.105 133.295 461.048 129.506 456.044 129.506C451.039 129.506 446.982 133.295 446.982 137.969C446.982 142.643 451.039 146.433 456.044 146.433Z" fill="#E6E6E6"/>
<path d="M185.014 102.753L107.059 172.072L108.195 173.186L186.15 103.867L185.014 102.753Z" fill="#E6E6E6"/>
<path d="M106.331 173.779L116.226 173.669L116.207 172.13L108.084 172.221L108.58 164.648L106.934 164.555L106.331 173.779Z" fill="#E6E6E6"/>
<path d="M186.875 102.158L186.273 111.383L184.627 111.29L185.122 103.717L176.999 103.808L176.981 102.268L186.875 102.158Z" fill="#E6E6E6"/>
<path d="M146.603 146.433C151.608 146.433 155.665 142.643 155.665 137.969C155.665 133.295 151.608 129.506 146.603 129.506C141.599 129.506 137.542 133.295 137.542 137.969C137.542 142.643 141.599 146.433 146.603 146.433Z" fill="#E6E6E6"/>
<path d="M368.873 207.42H232.128C230.162 207.418 228.278 206.688 226.888 205.39C225.498 204.092 224.716 202.332 224.714 200.496V38.9245C224.716 37.0886 225.498 35.3286 226.888 34.0305C228.278 32.7323 230.162 32.0021 232.128 32H368.873C370.839 32.0021 372.723 32.7323 374.113 34.0305C375.503 35.3286 376.285 37.0886 376.287 38.9245V200.496C376.285 202.332 375.503 204.092 374.113 205.39C372.723 206.688 370.839 207.418 368.873 207.42ZM232.128 33.5388C230.599 33.5404 229.133 34.1083 228.052 35.118C226.971 36.1277 226.363 37.4966 226.361 38.9245V200.496C226.363 201.924 226.971 203.293 228.052 204.302C229.133 205.312 230.599 205.88 232.128 205.882H368.873C370.402 205.88 371.868 205.312 372.949 204.302C374.03 203.293 374.638 201.924 374.64 200.496V38.9245C374.638 37.4966 374.03 36.1277 372.949 35.118C371.868 34.1083 370.402 33.5404 368.873 33.5388H232.128Z" fill="#3AA7DE"/>
<path d="M289.125 109.663H259.024C258.041 109.662 257.099 109.297 256.404 108.648C255.709 107.999 255.318 107.119 255.317 106.201V73.0253C255.318 72.1074 255.709 71.2273 256.404 70.5783C257.099 69.9292 258.041 69.5641 259.024 69.5631H289.125C290.108 69.5641 291.05 69.9292 291.745 70.5783C292.44 71.2273 292.831 72.1074 292.832 73.0253V106.201C292.831 107.119 292.44 107.999 291.745 108.648C291.05 109.297 290.108 109.662 289.125 109.663Z" fill="#3AA7DE"/>
<path d="M347.612 125.051H317.512C316.529 125.05 315.587 124.685 314.892 124.036C314.197 123.387 313.806 122.507 313.805 121.589V88.4131C313.806 87.4952 314.197 86.6151 314.892 85.9661C315.587 85.317 316.529 84.9519 317.512 84.9509H347.612C348.595 84.9519 349.537 85.317 350.232 85.9661C350.927 86.6151 351.318 87.4952 351.319 88.4131V121.589C351.318 122.507 350.927 123.387 350.232 124.036C349.537 124.685 348.595 125.05 347.612 125.051Z" fill="#CCCCCC"/>
<path d="M300.658 171.984H270.558C269.575 171.983 268.632 171.618 267.938 170.969C267.243 170.319 266.852 169.439 266.851 168.521V135.346C266.852 134.428 267.243 133.548 267.938 132.899C268.632 132.25 269.575 131.885 270.558 131.884H300.658C301.641 131.885 302.583 132.25 303.278 132.899C303.973 133.548 304.364 134.428 304.365 135.346V168.521C304.364 169.439 303.973 170.319 303.278 170.969C302.583 171.618 301.641 171.983 300.658 171.984Z" fill="#FF6584"/>
<path d="M589.586 373.556H452.841C450.875 373.553 448.991 372.823 447.601 371.525C446.211 370.227 445.429 368.467 445.427 366.631V205.06C445.429 203.224 446.211 201.464 447.601 200.166C448.991 198.867 450.875 198.137 452.841 198.135H589.586C591.552 198.137 593.436 198.867 594.826 200.166C596.216 201.464 596.998 203.224 597 205.06V366.631C596.998 368.467 596.216 370.227 594.826 371.525C593.436 372.823 591.552 373.553 589.586 373.556ZM452.841 199.674C451.312 199.676 449.846 200.243 448.765 201.253C447.684 202.263 447.076 203.632 447.074 205.06V366.631C447.076 368.059 447.684 369.428 448.765 370.438C449.846 371.447 451.312 372.015 452.841 372.017H589.586C591.115 372.015 592.581 371.447 593.662 370.438C594.743 369.428 595.351 368.059 595.353 366.631V205.06C595.351 203.632 594.743 202.263 593.662 201.253C592.581 200.243 591.115 199.676 589.586 199.674H452.841Z" fill="#3AA7DE"/>
<path d="M544.69 233.912H497.736C496.862 233.912 496.024 233.587 495.406 233.01C494.788 232.433 494.44 231.65 494.44 230.834C494.44 230.018 494.788 229.235 495.406 228.658C496.024 228.081 496.862 227.757 497.736 227.757H544.69C545.564 227.757 546.402 228.081 547.02 228.658C547.638 229.235 547.985 230.018 547.985 230.834C547.985 231.65 547.638 232.433 547.02 233.01C546.402 233.587 545.564 233.912 544.69 233.912Z" fill="#3AA7DE"/>
<path d="M567.757 263.148H474.671C474.238 263.149 473.809 263.07 473.408 262.916C473.008 262.761 472.644 262.535 472.337 262.249C472.031 261.963 471.787 261.624 471.621 261.25C471.456 260.876 471.37 260.475 471.37 260.071C471.37 259.666 471.456 259.266 471.621 258.892C471.787 258.518 472.031 258.179 472.337 257.893C472.644 257.607 473.008 257.38 473.408 257.226C473.809 257.072 474.238 256.993 474.671 256.993H567.757C568.19 256.993 568.619 257.072 569.019 257.226C569.42 257.38 569.784 257.607 570.09 257.893C570.397 258.179 570.64 258.518 570.806 258.892C570.972 259.266 571.057 259.666 571.057 260.071C571.057 260.475 570.972 260.876 570.806 261.25C570.64 261.624 570.397 261.963 570.09 262.249C569.784 262.535 569.42 262.761 569.019 262.916C568.619 263.07 568.19 263.149 567.757 263.148Z" fill="#CCCCCC"/>
<path d="M567.757 279.306H474.671C474.238 279.306 473.809 279.227 473.408 279.073C473.008 278.918 472.644 278.692 472.337 278.406C472.031 278.12 471.787 277.781 471.621 277.407C471.456 277.033 471.37 276.633 471.37 276.228C471.37 275.823 471.456 275.423 471.621 275.049C471.787 274.675 472.031 274.336 472.337 274.05C472.644 273.764 473.008 273.538 473.408 273.383C473.809 273.229 474.238 273.15 474.671 273.15H567.757C568.19 273.15 568.619 273.229 569.019 273.383C569.42 273.538 569.784 273.764 570.09 274.05C570.397 274.336 570.64 274.675 570.806 275.049C570.972 275.423 571.057 275.823 571.057 276.228C571.057 276.633 570.972 277.033 570.806 277.407C570.64 277.781 570.397 278.12 570.09 278.406C569.784 278.692 569.42 278.918 569.019 279.073C568.619 279.227 568.19 279.306 567.757 279.306Z" fill="#CCCCCC"/>
<path d="M567.757 295.463H474.671C474.238 295.463 473.809 295.384 473.408 295.23C473.008 295.076 472.644 294.849 472.337 294.563C472.031 294.277 471.787 293.938 471.621 293.564C471.456 293.19 471.37 292.79 471.37 292.385C471.37 291.981 471.456 291.58 471.621 291.206C471.787 290.832 472.031 290.493 472.337 290.207C472.644 289.921 473.008 289.695 473.408 289.54C473.809 289.386 474.238 289.307 474.671 289.308H567.757C568.19 289.307 568.619 289.386 569.019 289.54C569.42 289.695 569.784 289.921 570.09 290.207C570.397 290.493 570.64 290.832 570.806 291.206C570.972 291.58 571.057 291.981 571.057 292.385C571.057 292.79 570.972 293.19 570.806 293.564C570.64 293.938 570.397 294.277 570.09 294.563C569.784 294.849 569.42 295.076 569.019 295.23C568.619 295.384 568.19 295.463 567.757 295.463Z" fill="#CCCCCC"/>
<path d="M567.757 311.62H474.671C474.238 311.621 473.809 311.541 473.408 311.387C473.008 311.233 472.644 311.006 472.337 310.72C472.031 310.434 471.787 310.095 471.621 309.721C471.456 309.348 471.37 308.947 471.37 308.542C471.37 308.138 471.456 307.737 471.621 307.363C471.787 306.99 472.031 306.65 472.337 306.364C472.644 306.078 473.008 305.852 473.408 305.697C473.809 305.543 474.238 305.464 474.671 305.465H567.757C568.19 305.464 568.619 305.543 569.019 305.697C569.42 305.852 569.784 306.078 570.09 306.364C570.397 306.65 570.64 306.99 570.806 307.363C570.972 307.737 571.057 308.138 571.057 308.542C571.057 308.947 570.972 309.348 570.806 309.721C570.64 310.095 570.397 310.434 570.09 310.72C569.784 311.006 569.42 311.233 569.019 311.387C568.619 311.541 568.19 311.621 567.757 311.62Z" fill="#CCCCCC"/>
<path d="M567.757 327.777H474.671C474.238 327.778 473.809 327.699 473.408 327.544C473.008 327.39 472.644 327.163 472.337 326.877C472.031 326.592 471.787 326.252 471.621 325.878C471.456 325.505 471.37 325.104 471.37 324.699C471.37 324.295 471.456 323.894 471.621 323.52C471.787 323.147 472.031 322.807 472.337 322.521C472.644 322.236 473.008 322.009 473.408 321.855C473.809 321.7 474.238 321.621 474.671 321.622H567.757C568.19 321.621 568.619 321.7 569.019 321.855C569.42 322.009 569.784 322.236 570.09 322.521C570.397 322.807 570.64 323.147 570.806 323.52C570.972 323.894 571.057 324.295 571.057 324.699C571.057 325.104 570.972 325.505 570.806 325.878C570.64 326.252 570.397 326.592 570.09 326.877C569.784 327.163 569.42 327.39 569.019 327.544C568.619 327.699 568.19 327.778 567.757 327.777Z" fill="#CCCCCC"/>
<path d="M567.757 343.934H474.671C474.238 343.935 473.809 343.856 473.408 343.701C473.008 343.547 472.644 343.32 472.337 343.035C472.031 342.749 471.787 342.409 471.621 342.036C471.456 341.662 471.37 341.261 471.37 340.857C471.37 340.452 471.456 340.051 471.621 339.678C471.787 339.304 472.031 338.964 472.337 338.679C472.644 338.393 473.008 338.166 473.408 338.012C473.809 337.857 474.238 337.778 474.671 337.779H567.757C568.19 337.778 568.619 337.857 569.019 338.012C569.42 338.166 569.784 338.393 570.09 338.679C570.397 338.964 570.64 339.304 570.806 339.678C570.972 340.051 571.057 340.452 571.057 340.857C571.057 341.261 570.972 341.662 570.806 342.036C570.64 342.409 570.397 342.749 570.09 343.035C569.784 343.32 569.42 343.547 569.019 343.701C568.619 343.856 568.19 343.935 567.757 343.934Z" fill="#CCCCCC"/>
<path d="M148.159 373.556H11.4139C9.4483 373.553 7.56384 372.823 6.17395 371.525C4.78405 370.227 4.00224 368.467 4 366.631V205.06C4.00224 203.224 4.78405 201.464 6.17395 200.166C7.56384 198.867 9.4483 198.137 11.4139 198.135H148.159C150.125 198.137 152.009 198.867 153.399 200.166C154.789 201.464 155.571 203.224 155.573 205.06V366.631C155.571 368.467 154.789 370.227 153.399 371.525C152.009 372.823 150.125 373.553 148.159 373.556ZM11.4139 199.674C9.88509 199.676 8.4194 200.243 7.33836 201.253C6.25733 202.263 5.64924 203.632 5.64752 205.06V366.631C5.64924 368.059 6.25733 369.428 7.33836 370.438C8.4194 371.447 9.88509 372.015 11.4139 372.017H148.159C149.688 372.015 151.154 371.447 152.235 370.438C153.316 369.428 153.924 368.059 153.926 366.631V205.06C153.924 203.632 153.316 202.263 152.235 201.253C151.154 200.243 149.688 199.676 148.159 199.674H11.4139Z" fill="#3AA7DE"/>
<path d="M126.472 236.282H85.2834C84.4095 236.282 83.5713 235.958 82.9534 235.381C82.3354 234.804 81.9883 234.021 81.9883 233.205C81.9883 232.388 82.3354 231.606 82.9534 231.029C83.5713 230.451 84.4095 230.127 85.2834 230.127H126.472C127.346 230.127 128.184 230.451 128.802 231.029C129.42 231.606 129.767 232.388 129.767 233.205C129.767 234.021 129.42 234.804 128.802 235.381C128.184 235.958 127.346 236.282 126.472 236.282Z" fill="#3F3D56"/>
<path d="M126.472 252.439H85.2834C84.4095 252.439 83.5713 252.115 82.9534 251.538C82.3354 250.961 81.9883 250.178 81.9883 249.362C81.9883 248.546 82.3354 247.763 82.9534 247.186C83.5713 246.609 84.4095 246.284 85.2834 246.284H126.472C127.346 246.284 128.184 246.609 128.802 247.186C129.42 247.763 129.767 248.546 129.767 249.362C129.767 250.178 129.42 250.961 128.802 251.538C128.184 252.115 127.346 252.439 126.472 252.439Z" fill="#3F3D56"/>
<path d="M64.1502 261.639H34.0498C33.0669 261.638 32.1247 261.273 31.4297 260.624C30.7348 259.975 30.3439 259.095 30.3428 258.177V225.001C30.3439 224.083 30.7348 223.203 31.4297 222.554C32.1247 221.905 33.0669 221.54 34.0498 221.539H64.1502C65.133 221.54 66.0753 221.905 66.7702 222.554C67.4652 223.203 67.8561 224.083 67.8572 225.001V258.177C67.8561 259.095 67.4652 259.975 66.7702 260.624C66.0753 261.273 65.133 261.638 64.1502 261.639Z" fill="#3AA7DE"/>
<path d="M126.186 285.523H33.1006C32.6674 285.524 32.2383 285.445 31.8378 285.29C31.4374 285.136 31.0735 284.909 30.7669 284.624C30.4603 284.338 30.2171 283.998 30.0512 283.625C29.8852 283.251 29.7998 282.85 29.7998 282.446C29.7998 282.041 29.8852 281.64 30.0512 281.267C30.2171 280.893 30.4603 280.553 30.7669 280.267C31.0735 279.982 31.4374 279.755 31.8378 279.601C32.2383 279.446 32.6674 279.367 33.1006 279.368H126.186C126.62 279.367 127.049 279.446 127.449 279.601C127.849 279.755 128.213 279.982 128.52 280.267C128.827 280.553 129.07 280.893 129.236 281.267C129.402 281.64 129.487 282.041 129.487 282.446C129.487 282.85 129.402 283.251 129.236 283.625C129.07 283.998 128.827 284.338 128.52 284.624C128.213 284.909 127.849 285.136 127.449 285.29C127.049 285.445 126.62 285.524 126.186 285.523Z" fill="#CCCCCC"/>
<path d="M126.186 301.68H33.1006C32.6674 301.681 32.2383 301.602 31.8378 301.447C31.4374 301.293 31.0735 301.067 30.7669 300.781C30.4603 300.495 30.2171 300.155 30.0512 299.782C29.8852 299.408 29.7998 299.007 29.7998 298.603C29.7998 298.198 29.8852 297.797 30.0512 297.424C30.2171 297.05 30.4603 296.71 30.7669 296.425C31.0735 296.139 31.4374 295.912 31.8378 295.758C32.2383 295.603 32.6674 295.524 33.1006 295.525H126.186C126.62 295.524 127.049 295.603 127.449 295.758C127.849 295.912 128.213 296.139 128.52 296.425C128.827 296.71 129.07 297.05 129.236 297.424C129.402 297.797 129.487 298.198 129.487 298.603C129.487 299.007 129.402 299.408 129.236 299.782C129.07 300.155 128.827 300.495 128.52 300.781C128.213 301.067 127.849 301.293 127.449 301.447C127.049 301.602 126.62 301.681 126.186 301.68Z" fill="#CCCCCC"/>
<path d="M126.186 317.837H33.1006C32.6674 317.838 32.2383 317.759 31.8378 317.605C31.4374 317.45 31.0735 317.224 30.7669 316.938C30.4603 316.652 30.2171 316.313 30.0512 315.939C29.8852 315.565 29.7998 315.164 29.7998 314.76C29.7998 314.355 29.8852 313.955 30.0512 313.581C30.2171 313.207 30.4603 312.868 30.7669 312.582C31.0735 312.296 31.4374 312.069 31.8378 311.915C32.2383 311.761 32.6674 311.681 33.1006 311.682H126.186C126.62 311.681 127.049 311.761 127.449 311.915C127.849 312.069 128.213 312.296 128.52 312.582C128.827 312.868 129.07 313.207 129.236 313.581C129.402 313.955 129.487 314.355 129.487 314.76C129.487 315.164 129.402 315.565 129.236 315.939C129.07 316.313 128.827 316.652 128.52 316.938C128.213 317.224 127.849 317.45 127.449 317.605C127.049 317.759 126.62 317.838 126.186 317.837Z" fill="#CCCCCC"/>
<path d="M126.186 333.994H33.1006C32.6674 333.995 32.2383 333.916 31.8378 333.762C31.4374 333.607 31.0735 333.381 30.7669 333.095C30.4603 332.809 30.2171 332.47 30.0512 332.096C29.8852 331.722 29.7998 331.321 29.7998 330.917C29.7998 330.512 29.8852 330.112 30.0512 329.738C30.2171 329.364 30.4603 329.025 30.7669 328.739C31.0735 328.453 31.4374 328.226 31.8378 328.072C32.2383 327.918 32.6674 327.839 33.1006 327.839H126.186C126.62 327.839 127.049 327.918 127.449 328.072C127.849 328.226 128.213 328.453 128.52 328.739C128.827 329.025 129.07 329.364 129.236 329.738C129.402 330.112 129.487 330.512 129.487 330.917C129.487 331.321 129.402 331.722 129.236 332.096C129.07 332.47 128.827 332.809 128.52 333.095C128.213 333.381 127.849 333.607 127.449 333.762C127.049 333.916 126.62 333.995 126.186 333.994Z" fill="#CCCCCC"/>
<path d="M126.186 350.152H33.1006C32.6674 350.152 32.2383 350.073 31.8378 349.919C31.4374 349.764 31.0735 349.538 30.7669 349.252C30.4603 348.966 30.2171 348.627 30.0512 348.253C29.8852 347.879 29.7998 347.479 29.7998 347.074C29.7998 346.669 29.8852 346.269 30.0512 345.895C30.2171 345.521 30.4603 345.182 30.7669 344.896C31.0735 344.61 31.4374 344.384 31.8378 344.229C32.2383 344.075 32.6674 343.996 33.1006 343.996H126.186C126.62 343.996 127.049 344.075 127.449 344.229C127.849 344.384 128.213 344.61 128.52 344.896C128.827 345.182 129.07 345.521 129.236 345.895C129.402 346.269 129.487 346.669 129.487 347.074C129.487 347.479 129.402 347.879 129.236 348.253C129.07 348.627 128.827 348.966 128.52 349.252C128.213 349.538 127.849 349.764 127.449 349.919C127.049 350.073 126.62 350.152 126.186 350.152Z" fill="#CCCCCC"/>
<path d="M199.854 467.201V434.026C199.856 433.108 200.246 432.228 200.941 431.579C201.636 430.929 202.579 430.564 203.561 430.563H233.662C234.645 430.564 235.587 430.929 236.282 431.579C236.977 432.228 237.368 433.108 237.369 434.026V467.201C237.368 468.119 236.977 468.999 236.282 469.648C235.587 470.297 234.645 470.663 233.662 470.664H203.561C202.579 470.663 201.636 470.297 200.941 469.648C200.246 468.999 199.856 468.119 199.854 467.201Z" fill="#E6E6E6"/>
<path d="M210.697 456.154V422.978C210.698 422.06 211.089 421.18 211.784 420.531C212.479 419.882 213.421 419.517 214.404 419.516H244.505C245.487 419.517 246.43 419.882 247.125 420.531C247.82 421.18 248.211 422.06 248.212 422.978V456.154C248.211 457.072 247.82 457.952 247.125 458.601C246.43 459.25 245.487 459.615 244.505 459.616H214.404C213.421 459.615 212.479 459.25 211.784 458.601C211.089 457.952 210.698 457.072 210.697 456.154Z" fill="#3AA7DE"/>
<path d="M345.63 445.539C344.497 444.927 343.522 444.091 342.772 443.09C342.023 442.089 341.518 440.946 341.293 439.742C341.067 438.539 341.127 437.304 341.468 436.124C341.809 434.945 342.423 433.849 343.266 432.915L333.936 369.219L353.371 370.11L356.423 432.239C358.009 433.666 358.98 435.587 359.151 437.638C359.322 439.689 358.681 441.727 357.351 443.366C356.021 445.006 354.093 446.132 351.932 446.533C349.772 446.933 347.53 446.579 345.63 445.539V445.539Z" fill="#A0616A"/>
<path d="M356.039 370.958C355.64 371.396 355.13 371.733 354.555 371.938L337.089 378.164C336.212 378.477 335.239 378.464 334.372 378.127C333.505 377.791 332.809 377.157 332.427 376.356L316.955 343.88C315.47 340.868 315.217 337.451 316.245 334.277C317.004 332.011 318.404 329.978 320.297 328.393C322.19 326.808 324.506 325.73 327 325.271C328.918 324.902 330.9 324.928 332.806 325.347C335.09 325.823 337.212 326.823 338.978 328.257C340.745 329.691 342.1 331.514 342.922 333.561L356.679 367.523C356.91 368.097 356.973 368.718 356.86 369.322C356.748 369.926 356.464 370.491 356.039 370.958Z" fill="#CCCCCC"/>
<path d="M265.022 601.008H252.937L248.556 557.267L265.024 557.473L265.022 601.008Z" fill="#A0616A"/>
<path d="M244.305 597.782H267.611V611.488H229.631C229.631 609.688 230.01 607.906 230.748 606.243C231.485 604.58 232.566 603.069 233.929 601.796C235.291 600.524 236.909 599.514 238.689 598.826C240.47 598.137 242.378 597.782 244.305 597.782Z" fill="#2F2E41"/>
<path d="M321.206 601.008H309.122L303.373 557.473L321.208 557.474L321.206 601.008Z" fill="#A0616A"/>
<path d="M300.49 597.782H323.796V611.488H285.816C285.816 609.688 286.196 607.906 286.933 606.243C287.671 604.58 288.752 603.069 290.114 601.796C291.477 600.524 293.095 599.514 294.875 598.826C296.655 598.137 298.563 597.782 300.49 597.782Z" fill="#2F2E41"/>
<path d="M322.727 585.518L303.747 584.206C302.668 584.13 301.655 583.689 300.899 582.965C300.144 582.241 299.698 581.284 299.644 580.274L295.412 498.586C295.371 497.802 295.026 497.059 294.44 496.496C293.854 495.933 293.069 495.589 292.231 495.529C291.393 495.469 290.56 495.696 289.889 496.169C289.218 496.641 288.755 497.326 288.586 498.095L270.931 578.565C270.713 579.555 270.114 580.437 269.249 581.044C268.384 581.651 267.311 581.942 266.232 581.863L249.075 580.581C248.487 580.537 247.914 580.384 247.391 580.131C246.867 579.878 246.402 579.529 246.024 579.107C245.646 578.684 245.362 578.195 245.189 577.668C245.015 577.141 244.956 576.588 245.015 576.04L260.932 427.379C260.994 426.798 261.187 426.235 261.498 425.729C261.81 425.222 262.232 424.783 262.738 424.44C263.243 424.096 263.821 423.857 264.433 423.737C265.045 423.617 265.677 423.619 266.288 423.743L326.816 436.032C327.819 436.238 328.714 436.761 329.351 437.513C329.987 438.265 330.326 439.199 330.309 440.158L327.489 581.465C327.467 582.548 326.992 583.58 326.165 584.34C325.338 585.1 324.225 585.527 323.065 585.53C322.952 585.53 322.84 585.526 322.727 585.518Z" fill="#2F2E41"/>
<path d="M306.122 303.08C319.493 303.08 330.332 292.956 330.332 280.468C330.332 267.98 319.493 257.856 306.122 257.856C292.751 257.856 281.912 267.98 281.912 280.468C281.912 292.956 292.751 303.08 306.122 303.08Z" fill="#A0616A"/>
<path d="M268.559 438.843C266.231 436.893 264.383 434.495 263.142 431.815C261.9 429.134 261.296 426.235 261.369 423.315C261.369 390.816 291.488 318.208 292.432 315.942C292.525 315.397 293.319 315.161 297.489 312.53C301.66 309.898 307.676 309.493 315.369 311.328C316.151 311.515 316.863 311.899 317.428 312.438C317.992 312.976 318.388 313.649 318.572 314.383L320.003 316.314C320.128 316.804 320.373 317.26 320.721 317.645C321.068 318.029 321.507 318.333 322.003 318.53C328.207 320.971 347.925 332.227 341.206 374.589C334.964 413.94 332.431 437.082 331.632 445.206C331.538 446.17 331.085 447.073 330.352 447.757C329.618 448.44 328.651 448.862 327.619 448.949C324.577 449.203 319.357 449.541 313.139 449.541C298.727 449.541 278.959 447.725 268.559 438.843Z" fill="#7AB2CE"/>
<path d="M239.63 426.803C239.054 425.705 238.743 424.504 238.718 423.282C238.694 422.061 238.956 420.849 239.487 419.732C240.018 418.616 240.804 417.621 241.791 416.819C242.778 416.017 243.941 415.427 245.199 415.09L275.453 357.343L291.06 368.198L256.527 421.376C256.992 423.387 256.652 425.487 255.571 427.279C254.489 429.071 252.742 430.43 250.659 431.099C248.576 431.768 246.303 431.7 244.271 430.908C242.238 430.116 240.587 428.655 239.63 426.803L239.63 426.803Z" fill="#A0616A"/>
<path d="M292.768 370.291C292.176 370.448 291.551 370.462 290.952 370.333L272.734 366.412C271.819 366.216 271.019 365.699 270.5 364.968C269.981 364.237 269.781 363.349 269.942 362.485L276.47 327.466C277.034 324.191 278.862 321.223 281.609 319.122C283.592 317.635 285.967 316.676 288.484 316.345C291.002 316.014 293.568 316.324 295.913 317.241C297.726 317.933 299.355 318.986 300.688 320.326C302.301 321.91 303.466 323.844 304.077 325.955C304.689 328.065 304.727 330.284 304.188 332.411L295.349 367.772C295.199 368.369 294.88 368.917 294.427 369.36C293.973 369.803 293.4 370.124 292.768 370.291Z" fill="#CCCCCC"/>
<path d="M300.454 300.898C299.275 299.775 298.406 298.403 297.918 296.898C297.431 295.393 297.341 293.801 297.655 292.256C298.499 288.132 298.995 285.434 299.089 284.452C299.41 281.094 295.776 278.376 292.179 277.943C292.04 277.926 291.923 277.915 291.826 277.908C291.917 277.992 292.016 278.077 292.102 278.153C292.785 278.753 293.636 279.499 293.433 280.269C293.312 280.732 292.858 281.061 292.047 281.273C286.422 282.743 282.09 281.393 278.414 277.023C277.381 275.781 276.67 274.332 276.339 272.79C275.022 266.755 278.531 261.611 281.707 258.359C284.326 255.677 288.571 252.421 293.924 252.142C298.087 251.925 303.037 254.163 304.519 258.195C305.218 257.227 306.148 256.425 307.237 255.852C308.325 255.279 309.542 254.951 310.789 254.893C313.632 254.836 316.429 255.562 318.831 256.982C330.57 263.263 335.615 278.224 329.848 289.653C326.22 296.843 318.361 302.195 309.336 303.621C308.771 303.711 308.199 303.756 307.626 303.756C306.286 303.754 304.96 303.5 303.728 303.009C302.496 302.518 301.382 301.8 300.454 300.898Z" fill="#2F2E41"/>
<path d="M186.926 612H379.139C379.4 612 379.651 611.903 379.836 611.73C380.02 611.558 380.124 611.324 380.124 611.079C380.124 610.835 380.02 610.601 379.836 610.428C379.651 610.256 379.4 610.159 379.139 610.159H186.926C186.665 610.159 186.414 610.256 186.229 610.428C186.044 610.601 185.94 610.835 185.94 611.079C185.94 611.324 186.044 611.558 186.229 611.73C186.414 611.903 186.665 612 186.926 612Z" fill="#3F3D56"/>
</g>
<defs>
<clipPath id="clip0">
<rect width="593" height="580" fill="white" transform="translate(4 32)"/>
</clipPath>
</defs>
</svg>
