<svg width="48" height="48" viewBox="0 0 48 48" fill="none" xmlns="http://www.w3.org/2000/svg">
<path d="M28.75 25.75C28.75 26.9367 28.3981 28.0967 27.7388 29.0834C27.0795 30.0701 26.1425 30.8392 25.0461 31.2933C23.9497 31.7474 22.7433 31.8662 21.5795 31.6347C20.4156 31.4032 19.3465 30.8318 18.5074 29.9926C17.6682 29.1535 17.0968 28.0844 16.8653 26.9205C16.6338 25.7567 16.7526 24.5503 17.2067 23.4539C17.6608 22.3575 18.4299 21.4205 19.4166 20.7612C20.4033 20.1019 21.5633 19.75 22.75 19.75C24.3407 19.7518 25.8658 20.3846 26.9906 21.5094C28.1154 22.6342 28.7482 24.1593 28.75 25.75ZM41.5 17.5V34C41.4968 36.7838 40.3896 39.4527 38.4211 41.4211C36.4527 43.3896 33.7838 44.4968 31 44.5H14.5C11.7162 44.4968 9.04733 43.3896 7.07889 41.4211C5.11044 39.4527 4.00318 36.7838 4 34V17.5C4.00318 14.7162 5.11044 12.0473 7.07889 10.0789C9.04733 8.11044 11.7162 7.00318 14.5 7H31C33.7838 7.00318 36.4527 8.11044 38.4211 10.0789C40.3896 12.0473 41.4968 14.7162 41.5 17.5ZM31.75 25.75C31.75 23.97 31.2222 22.2299 30.2332 20.7499C29.2443 19.2698 27.8387 18.1163 26.1942 17.4351C24.5496 16.7539 22.74 16.5757 20.9942 16.9229C19.2484 17.2702 17.6447 18.1274 16.386 19.386C15.1274 20.6447 14.2702 22.2484 13.9229 23.9942C13.5757 25.74 13.7539 27.5496 14.4351 29.1942C15.1163 30.8387 16.2698 32.2443 17.7499 33.2332C19.2299 34.2222 20.97 34.75 22.75 34.75C25.1361 34.7473 27.4238 33.7982 29.111 32.111C30.7982 30.4238 31.7473 28.1361 31.75 25.75ZM34.75 16C34.75 15.555 34.618 15.12 34.3708 14.75C34.1236 14.38 33.7722 14.0916 33.361 13.9213C32.9499 13.751 32.4975 13.7064 32.061 13.7932C31.6246 13.88 31.2237 14.0943 30.909 14.409C30.5943 14.7237 30.38 15.1246 30.2932 15.561C30.2064 15.9975 30.251 16.4499 30.4213 16.861C30.5916 17.2722 30.88 17.6236 31.25 17.8708C31.62 18.118 32.055 18.25 32.5 18.25C33.0967 18.25 33.669 18.0129 34.091 17.591C34.5129 17.169 34.75 16.5967 34.75 16Z" fill="white"/>
</svg>
