<svg width="48" height="48" viewBox="0 0 48 48" fill="none" xmlns="http://www.w3.org/2000/svg">
<path fill-rule="evenodd" clip-rule="evenodd" d="M2 5.67601C2 4.70107 2.38729 3.76606 3.07668 3.07668C3.76606 2.3873 4.70106 2 5.676 2H42.32C42.8032 1.99922 43.2817 2.09373 43.7283 2.27814C44.1749 2.46255 44.5807 2.73322 44.9225 3.07468C45.2643 3.41613 45.5354 3.82165 45.7203 4.26802C45.9052 4.7144 46.0003 5.19286 46 5.67601V42.32C46.0005 42.8032 45.9058 43.2819 45.7211 43.7284C45.5365 44.175 45.2656 44.5808 44.924 44.9226C44.5824 45.2644 44.1768 45.5355 43.7303 45.7204C43.2838 45.9052 42.8052 46.0003 42.322 46H5.676C5.19309 46 4.71492 45.9049 4.26879 45.72C3.82267 45.5351 3.41734 45.2642 3.07597 44.9226C2.73459 44.5811 2.46386 44.1756 2.27925 43.7294C2.09463 43.2831 1.99974 42.8049 2 42.322V5.67601ZM19.416 18.776H25.374V21.768C26.234 20.048 28.434 18.5 31.74 18.5C38.078 18.5 39.58 21.926 39.58 28.212V39.856H33.166V29.644C33.166 26.064 32.306 24.044 30.122 24.044C27.092 24.044 25.832 26.222 25.832 29.644V39.856H19.416V18.776ZM8.416 39.582H14.832V18.5H8.416V39.58V39.582ZM15.75 11.624C15.7621 12.1734 15.6643 12.7196 15.4625 13.2306C15.2606 13.7417 14.9587 14.2073 14.5745 14.6001C14.1902 14.9929 13.7314 15.305 13.2249 15.518C12.7184 15.7311 12.1745 15.8408 11.625 15.8408C11.0755 15.8408 10.5316 15.7311 10.0251 15.518C9.5186 15.305 9.05978 14.9929 8.67554 14.6001C8.2913 14.2073 7.98939 13.7417 7.78752 13.2306C7.58566 12.7196 7.4879 12.1734 7.5 11.624C7.52375 10.5457 7.96877 9.51959 8.73977 8.76538C9.51077 8.01117 10.5464 7.58884 11.625 7.58884C12.7036 7.58884 13.7392 8.01117 14.5102 8.76538C15.2812 9.51959 15.7263 10.5457 15.75 11.624Z" fill="white"/>
</svg>
