<?xml version="1.0" encoding="utf-8"?>
<!-- Generator: Adobe Illustrator 24.0.1, SVG Export Plug-In . SVG Version: 6.00 Build 0)  -->
<svg version="1.1" id="Camada_2" xmlns="http://www.w3.org/2000/svg" xmlns:xlink="http://www.w3.org/1999/xlink" x="0px" y="0px"
	 viewBox="0 0 595.28 841.89" style="enable-background:new 0 0 595.28 841.89;" xml:space="preserve">
<style type="text/css">
	.st0{clip-path:url(#SVGID_2_);}
	.st1{fill:#FFFFFF;}
</style>
<g>
	<defs>
		<polygon id="SVGID_1_" points="298.23,264.32 290.94,264.65 282.1,265.87 272.1,268.16 263.97,271.03 256.23,274.45 
			247.45,279.68 241.13,284.13 234.03,290.26 228.87,295.68 223.9,302.06 218.74,309.94 215,316.9 211.9,324.32 209.19,333.03 
			207.45,342.39 206.61,349.94 206.42,358.65 207.19,367.94 208.94,377.1 211.06,384.71 213.26,390.52 216.81,398 221,405.23 
			227.19,413.68 232.42,419.48 237.45,424.39 243.65,429.16 250.29,433.74 258.29,438.13 265.58,441.16 274.48,444.06 
			284.16,446.06 295.58,446.97 305.39,446.71 312.55,445.81 320.68,444.26 328.87,441.61 336.74,438.45 344.94,434 351.84,429.42 
			358.74,423.81 365.45,417.23 371.77,409.48 377.32,400.77 380.74,394.58 384.94,383.29 387.06,375.61 388.48,367.35 
			389.06,361.74 389.26,354.52 388.74,346.45 387.52,338.39 386.03,331.94 383.84,324.77 380.55,316.77 376.74,309.68 
			371.26,301.35 365.19,294.13 359,288 354.35,284.06 347.71,279.23 340.23,274.77 332.81,271.23 325.9,268.71 318.55,266.65 
			311.52,265.35 304.81,264.65 		"/>
	</defs>
	<clipPath id="SVGID_2_">
		<use xlink:href="#SVGID_1_"  style="overflow:visible;"/>
	</clipPath>
	<g class="st0">
		<g>
			<path class="st1" d="M405,470c-75.02,0-150.02,0-225,0c0-75.02,0-150.02,0-225c75.02,0,150.02,0,225,0
				C405,320.02,405,395.02,405,470z M206.43,355.5c-0.2,50.33,40.45,91.27,90.91,91.56c50.54,0.29,91.66-40.43,91.9-90.99
				c0.23-49.88-40.68-91.43-90.21-91.63C247.74,264.23,206.63,304.66,206.43,355.5z"/>
			<path d="M206.43,355.5c0.2-50.84,41.31-91.27,92.6-91.06c49.53,0.2,90.44,41.75,90.21,91.63c-0.24,50.57-41.36,91.28-91.9,90.99
				C246.88,446.77,206.23,405.83,206.43,355.5z M354.12,405.66c0-7.18-0.17-14.01,0.03-20.83c0.64-21.91-13.6-37.71-30.22-44.72
				c-1.05-0.44-2.91-0.18-3.84,0.51c-14.84,10.92-30.54,10.85-45.43-0.27c-0.71-0.53-2.1-0.87-2.85-0.55
				c-15.05,6.39-26.4,16.77-29.47,33.15c-1.94,10.37-0.91,21.3-1.19,31.97c0,0.19,0.26,0.38,0.52,0.74
				C278.89,405.66,316.23,405.66,354.12,405.66z M328.03,314.4c0.11-16.65-13.49-30.35-30.27-30.47
				c-16.76-0.13-30.77,13.42-30.93,29.92c-0.16,16.47,13.66,30.35,30.37,30.49C314,344.48,327.92,330.96,328.03,314.4z"/>
			<path class="st1" d="M354.12,405.66c-37.89,0-75.23,0-112.46,0c-0.26-0.35-0.52-0.55-0.52-0.74c0.28-10.68-0.75-21.61,1.19-31.97
				c3.07-16.38,14.42-26.76,29.47-33.15c0.75-0.32,2.14,0.01,2.85,0.55c14.89,11.12,30.59,11.19,45.43,0.27
				c0.93-0.69,2.8-0.95,3.84-0.51c16.62,7.01,30.86,22.81,30.22,44.72C353.96,391.64,354.12,398.48,354.12,405.66z"/>
			<path class="st1" d="M328.03,314.4c-0.11,16.56-14.03,30.08-30.83,29.94c-16.71-0.14-30.53-14.02-30.37-30.49
				c0.16-16.49,14.17-30.04,30.93-29.92C314.54,284.05,328.15,297.74,328.03,314.4z"/>
		</g>
	</g>
</g>
</svg>
